<svg width="1024" height="1018" viewBox="0 0 1024 1018" fill="none" xmlns="http://www.w3.org/2000/svg">
<g clip-path="url(#clip0)">
<path d="M974.637 533.83C971.074 526.016 969.23 517.536 969.23 508.957C969.23 500.378 971.074 491.898 974.637 484.085L1012.82 400.616C1019.88 385.184 1023.68 368.474 1023.98 351.523C1024.27 334.572 1021.06 317.741 1014.54 302.076C1008.02 286.41 998.327 272.244 986.068 260.457C973.809 248.67 959.244 239.513 943.277 233.555L856.881 201.318C848.8 198.299 841.464 193.596 835.363 187.524C829.263 181.452 824.541 174.153 821.513 166.117L789.087 80.2771C783.104 64.4016 773.9 49.9186 762.049 37.7278C750.197 25.537 735.951 15.8987 720.195 9.41162C704.438 2.92453 687.508 -0.272806 670.456 0.0182247C653.405 0.309255 636.595 4.08243 621.072 11.1034L537.065 49.0622C529.202 52.5944 520.672 54.4212 512.044 54.4212C503.415 54.4212 494.885 52.5944 487.022 49.0622L402.969 11.1464C387.446 4.11971 370.636 0.342007 353.582 0.0481526C336.529 -0.245702 319.597 2.95057 303.838 9.43828C288.08 15.926 273.833 25.5664 261.982 37.7604C250.132 49.9543 240.931 64.4411 234.952 80.3201L202.526 166.204C199.489 174.236 194.757 181.53 188.649 187.594C182.541 193.658 175.199 198.352 167.114 201.361L80.7625 233.596C64.7981 239.552 50.2354 248.705 37.9783 260.489C25.7211 272.272 16.0313 286.434 9.51006 302.096C2.98887 317.758 -0.224448 334.585 0.0695712 351.532C0.36359 368.48 4.15867 385.187 11.2192 400.616L49.3614 484.123C52.9247 491.937 54.7681 500.417 54.7681 508.996C54.7681 517.575 52.9247 526.055 49.3614 533.869L11.176 617.335C4.11211 632.766 0.314449 649.477 0.0187126 666.428C-0.277025 683.38 2.93547 700.211 9.45679 715.877C15.9781 731.543 25.6691 745.71 37.9281 757.497C50.1871 769.284 64.7525 778.441 80.7203 784.399L167.116 816.632C175.197 819.651 182.534 824.355 188.634 830.426C194.734 836.498 199.457 843.797 202.484 851.834L234.909 937.675C240.905 953.542 250.114 968.015 261.968 980.197C273.821 992.38 288.065 1002.01 303.818 1008.5C319.57 1014.98 336.494 1018.18 353.542 1017.9C370.589 1017.62 387.396 1013.85 402.921 1006.85L486.928 968.933C494.786 965.38 503.318 963.542 511.95 963.542C520.582 963.542 529.113 965.38 536.971 968.933L620.936 1006.89C636.459 1013.91 653.269 1017.69 670.322 1017.98C687.374 1018.28 704.305 1015.08 720.064 1008.6C735.823 1002.12 750.074 992.483 761.931 980.297C773.788 968.111 783 953.633 788.993 937.76L821.418 851.877C824.456 843.844 829.187 836.551 835.295 830.487C841.403 824.423 848.746 819.728 856.83 816.719L943.184 784.486C959.154 778.538 973.724 769.389 985.987 757.608C998.251 745.827 1007.95 731.665 1014.47 716.002C1021 700.339 1024.21 683.51 1023.92 666.559C1023.63 649.609 1019.83 632.899 1012.77 617.468L974.637 533.83Z" fill="#0046BF"/>
<path d="M625.575 409.699C625 447.274 612.5 498.149 553.9 517.874C572.25 474.224 575.05 432.449 562.05 393.399C544.675 340.974 486.7 300.024 448.125 277.724C434.95 270.074 418.05 279.574 418.3 294.799C418.8 322.599 410.35 363.224 369.325 404.249C314.675 458.849 287 515.274 287 571.924C287 643.049 337 733.999 437 733.999C335.975 632.974 412 546.924 412 546.924C433.15 694.774 536.7 733.999 587 733.999C629.775 733.999 712 702.749 712 572.799C712 494.474 678.7 435.024 652.375 400.324C643.7 388.874 625.775 395.374 625.575 409.699Z" fill="white"/>
</g>
<defs>
<clipPath id="clip0">
<rect width="1024" height="1018" fill="white"/>
</clipPath>
</defs>
</svg>
