<svg width="1024" height="1018" viewBox="0 0 1024 1018" fill="none" xmlns="http://www.w3.org/2000/svg">
<g clip-path="url(#clip0)">
<path d="M974.637 533.83C971.074 526.016 969.23 517.536 969.23 508.957C969.23 500.378 971.074 491.898 974.637 484.085L1012.82 400.616C1019.88 385.184 1023.68 368.474 1023.98 351.523C1024.27 334.572 1021.06 317.741 1014.54 302.076C1008.02 286.41 998.327 272.244 986.068 260.457C973.809 248.67 959.244 239.513 943.277 233.555L856.881 201.318C848.8 198.299 841.464 193.596 835.363 187.524C829.263 181.452 824.541 174.153 821.513 166.117L789.087 80.2771C783.104 64.4016 773.9 49.9186 762.049 37.7278C750.197 25.537 735.951 15.8987 720.195 9.41162C704.438 2.92453 687.508 -0.272806 670.456 0.0182247C653.405 0.309255 636.595 4.08243 621.072 11.1034L537.065 49.0622C529.202 52.5944 520.672 54.4212 512.044 54.4212C503.415 54.4212 494.885 52.5944 487.022 49.0622L402.969 11.1464C387.446 4.11971 370.636 0.342007 353.582 0.0481526C336.529 -0.245702 319.597 2.95057 303.838 9.43828C288.08 15.926 273.833 25.5664 261.982 37.7604C250.132 49.9543 240.931 64.4411 234.952 80.3201L202.526 166.204C199.489 174.236 194.757 181.53 188.649 187.594C182.541 193.658 175.199 198.352 167.114 201.361L80.7625 233.596C64.7981 239.552 50.2354 248.705 37.9783 260.489C25.7211 272.272 16.0313 286.434 9.51006 302.096C2.98887 317.758 -0.224448 334.585 0.0695712 351.532C0.36359 368.48 4.15867 385.187 11.2192 400.616L49.3614 484.123C52.9247 491.937 54.7681 500.417 54.7681 508.996C54.7681 517.575 52.9247 526.055 49.3614 533.869L11.176 617.335C4.11211 632.766 0.314449 649.477 0.0187126 666.428C-0.277025 683.38 2.93547 700.211 9.45679 715.877C15.9781 731.543 25.6691 745.71 37.9281 757.497C50.1871 769.284 64.7525 778.441 80.7203 784.399L167.116 816.632C175.197 819.651 182.534 824.355 188.634 830.426C194.734 836.498 199.457 843.797 202.484 851.834L234.909 937.675C240.905 953.542 250.114 968.015 261.968 980.197C273.821 992.38 288.065 1002.01 303.818 1008.5C319.57 1014.98 336.494 1018.18 353.542 1017.9C370.589 1017.62 387.396 1013.85 402.921 1006.85L486.928 968.933C494.786 965.38 503.318 963.542 511.95 963.542C520.582 963.542 529.113 965.38 536.971 968.933L620.936 1006.89C636.459 1013.91 653.269 1017.69 670.322 1017.98C687.374 1018.28 704.305 1015.08 720.064 1008.6C735.823 1002.12 750.074 992.483 761.931 980.297C773.788 968.111 783 953.633 788.993 937.76L821.418 851.877C824.456 843.844 829.187 836.551 835.295 830.487C841.403 824.423 848.746 819.728 856.83 816.719L943.184 784.486C959.154 778.538 973.724 769.389 985.987 757.608C998.251 745.827 1007.95 731.665 1014.47 716.002C1021 700.339 1024.21 683.51 1023.92 666.559C1023.63 649.609 1019.83 632.899 1012.77 617.468L974.637 533.83Z" fill="#0046BF"/>
<path d="M273.545 509H512.182V546.5H273.545V509Z" fill="white"/>
<path d="M233.773 415.25H432.636V452.75H233.773V415.25Z" fill="white"/>
<path d="M788.98 520.362L729.321 389.112C727.79 385.739 725.241 382.864 721.992 380.844C718.743 378.824 714.937 377.748 711.045 377.75H651.386V340.25C651.386 335.277 649.291 330.508 645.561 326.992C641.832 323.475 636.774 321.5 631.5 321.5H313.318V359H611.613V594.425C602.552 599.386 594.621 605.989 588.28 613.854C581.938 621.719 577.311 630.69 574.664 640.25H449.698C444.858 622.575 433.347 607.171 417.323 596.926C401.299 586.681 381.862 582.297 362.656 584.598C343.449 586.898 325.792 595.723 312.993 609.42C300.194 623.117 293.133 640.745 293.133 659C293.133 677.254 300.194 694.882 312.993 708.579C325.792 722.276 343.449 731.102 362.656 733.402C381.862 735.702 401.299 731.319 417.323 721.073C433.347 710.828 444.858 695.425 449.698 677.75H574.664C578.99 693.842 588.884 708.114 602.779 718.309C616.675 728.504 633.779 734.04 651.386 734.04C668.993 734.04 686.097 728.504 699.993 718.309C713.888 708.114 723.782 693.842 728.108 677.75H770.704C775.978 677.75 781.037 675.774 784.766 672.258C788.495 668.742 790.591 663.973 790.591 659V527.75C790.591 525.21 790.043 522.696 788.98 520.362ZM372.977 696.5C365.11 696.5 357.421 694.3 350.88 690.18C344.34 686.059 339.242 680.203 336.232 673.35C333.221 666.498 332.434 658.958 333.968 651.684C335.503 644.41 339.291 637.728 344.853 632.483C350.415 627.239 357.502 623.667 365.217 622.22C372.933 620.773 380.93 621.516 388.197 624.354C395.465 627.193 401.676 631.999 406.047 638.166C410.417 644.333 412.749 651.583 412.749 659C412.739 668.942 408.545 678.475 401.089 685.505C393.632 692.536 383.522 696.49 372.977 696.5ZM651.386 415.25H697.92L740.556 509H651.386V415.25ZM651.386 696.5C643.52 696.5 635.83 694.3 629.289 690.18C622.749 686.059 617.651 680.203 614.641 673.35C611.63 666.498 610.843 658.958 612.377 651.684C613.912 644.41 617.7 637.728 623.262 632.483C628.825 627.239 635.911 623.667 643.627 622.22C651.342 620.773 659.339 621.516 666.606 624.354C673.874 627.193 680.085 631.999 684.456 638.166C688.826 644.333 691.159 651.583 691.159 659C691.148 668.942 686.954 678.475 679.498 685.505C672.041 692.536 661.931 696.49 651.386 696.5ZM750.818 640.25H728.108C723.727 624.189 713.818 609.953 699.933 599.773C686.049 589.594 668.974 584.046 651.386 584V546.5H750.818V640.25Z" fill="white"/>
</g>
<defs>
<clipPath id="clip0">
<rect width="1024" height="1018" fill="white"/>
</clipPath>
</defs>
</svg>
