<?xml version="1.0" standalone="no"?>
<!DOCTYPE svg PUBLIC "-//W3C//DTD SVG 20010904//EN"
 "http://www.w3.org/TR/2001/REC-SVG-20010904/DTD/svg10.dtd">
<svg version="1.0" xmlns="http://www.w3.org/2000/svg"
 width="1508.000000pt" height="1508.000000pt" viewBox="0 0 1508.000000 1508.000000"
 preserveAspectRatio="xMidYMid meet">
<metadata>
Created by potrace 1.11, written by Peter Selinger 2001-2013
</metadata>
<g transform="translate(0.000000,1508.000000) scale(0.100000,-0.100000)"
fill="#000000" stroke="none">
<path d="M1729 10636 c-82 -29 -167 -104 -194 -170 -7 -18 -16 -100 -20 -193
l-8 -163 -109 0 -110 0 -34 -34 c-46 -46 -48 -101 -5 -148 29 -33 30 -33 143
-38 l113 -5 0 -130 0 -130 -82 -3 -83 -3 0 -109 0 -109 83 -3 82 -3 3 -65 c2
-36 1 -93 -3 -127 l-7 -63 -69 0 c-118 0 -169 -36 -169 -118 0 -86 52 -122
178 -122 l62 0 0 -125 0 -125 -441 0 c-456 0 -460 0 -506 -43 -46 -41 -38
-126 15 -167 24 -19 42 -20 478 -20 l454 0 0 -130 0 -130 -180 0 c-200 0 -227
-6 -255 -60 -19 -37 -19 -73 0 -110 28 -53 56 -60 249 -60 96 0 176 -3 178 -7
2 -5 2 -82 0 -173 l-4 -165 -313 3 -313 3 -36 -31 c-44 -39 -55 -84 -32 -132
32 -67 38 -68 385 -68 l311 0 0 -106 0 -105 -22 15 c-20 14 -82 16 -481 16
-509 0 -500 1 -532 -66 -19 -40 -19 -67 0 -104 31 -60 31 -60 522 -60 378 0
452 2 477 15 15 8 31 15 33 15 3 0 4 -163 2 -363 l-4 -363 30 -60 c33 -64 95
-115 163 -133 37 -11 1834 -6 1939 5 62 6 106 34 148 93 l30 43 3 1733 2 1733
30 12 c17 7 39 24 50 37 l19 24 11 -21 c38 -71 218 -63 259 11 14 25 10 32
-175 295 l-189 269 -6 96 c-10 137 -53 211 -141 237 -20 6 -390 12 -963 16
-754 4 -937 3 -966 -8z m255 -549 c135 -175 246 -325 246 -333 0 -8 7 -28 15
-44 41 -80 187 -80 246 -1 22 30 23 30 36 11 47 -67 217 -66 253 0 l12 22 14
-21 c47 -67 209 -67 245 0 9 17 12 16 38 -13 24 -27 36 -32 88 -36 73 -5 128
11 150 44 16 24 16 24 30 4 46 -66 199 -66 245 -1 l15 22 16 -24 c8 -13 29
-29 45 -36 l29 -12 7 -1691 c4 -930 5 -1692 3 -1694 -2 -2 -457 -7 -1010 -11
l-1007 -6 0 154 c0 607 30 3993 35 3987 1 -2 113 -146 249 -321z"/>
<path d="M3310 9396 l0 -96 86 0 c117 0 153 21 154 92 0 25 -8 46 -24 65 -23
26 -29 28 -120 31 l-96 4 0 -96z m130 49 c7 -8 10 -26 8 -39 -3 -15 1 -27 14
-35 10 -6 18 -19 18 -28 0 -14 -4 -13 -23 5 -13 12 -34 22 -48 22 -31 0 -49
17 -49 45 0 42 54 62 80 30z"/>
<path d="M3382 9441 c-8 -4 -12 -19 -10 -32 4 -29 45 -34 61 -7 19 30 -19 60
-51 39z"/>
<path d="M1940 9346 c0 -2 8 -10 18 -17 15 -13 16 -12 3 4 -13 16 -21 21 -21
13z"/>
<path d="M2603 9303 c9 -2 23 -2 30 0 6 3 -1 5 -18 5 -16 0 -22 -2 -12 -5z"/>
<path d="M2723 9303 c37 -2 96 -2 130 0 34 2 4 3 -68 3 -71 0 -99 -1 -62 -3z"/>
<path d="M2130 9088 c0 -13 -7 -32 -15 -42 -22 -30 -18 -42 5 -15 10 13 19 18
20 12 0 -8 13 -13 30 -13 37 0 42 -16 38 -135 l-3 -90 -50 0 -50 0 -6 100 -6
100 1 -105 1 -105 60 0 60 0 3 104 c2 88 0 109 -18 143 -11 21 -20 45 -20 53
0 9 -10 15 -25 15 -19 0 -25 -5 -25 -22z"/>
<path d="M2710 9027 c-21 -7 -40 -23 -50 -42 -8 -16 -18 -31 -22 -33 -5 -2 -8
-15 -8 -28 0 -16 -8 -28 -22 -35 -19 -8 -23 -17 -22 -51 1 -43 22 -68 56 -68
12 0 21 14 31 48 16 55 44 69 49 25 3 -26 6 -28 42 -25 86 7 124 54 111 138
-9 61 -33 84 -87 83 -24 0 -59 -5 -78 -12z"/>
<path d="M3329 9013 c-1 -4 -1 -21 0 -38 l1 -30 -16 30 c-22 39 -20 38 -42 31
-14 -5 -18 -13 -15 -34 l5 -27 -20 24 c-27 33 -57 22 -48 -17 l7 -27 -19 23
-18 23 -27 -21 c-47 -37 -31 -101 29 -116 59 -15 233 29 284 72 52 44 31 114
-33 114 -23 0 -27 -5 -28 -27 l-1 -28 -7 25 c-6 23 -50 43 -52 23z"/>
<path d="M1840 8601 c0 -17 4 -32 8 -35 5 -3 402 -6 883 -7 l874 -1 0 28 0 29
-390 6 c-214 3 -612 7 -882 8 l-493 1 0 -29z"/>
<path d="M2180 8340 c-22 -7 -20 -8 15 -10 32 -1 36 -3 20 -10 -11 -5 -32 -9
-46 -9 -18 -1 -28 -8 -32 -21 -3 -13 -13 -20 -29 -20 -22 1 -22 1 -4 15 23 17
19 24 -15 27 -20 3 -24 -2 -27 -29 -2 -20 1 -33 8 -33 16 0 44 -29 36 -38 -4
-3 -16 -1 -26 6 -18 11 -20 9 -20 -13 l0 -25 100 0 100 0 0 52 c0 63 -19 118
-40 117 -8 -1 -26 -5 -40 -9z m33 -99 c16 -16 -2 -31 -37 -31 -36 0 -62 22
-51 41 8 13 72 6 88 -10z"/>
<path d="M2759 8326 c-46 -14 -73 -38 -102 -89 -21 -38 -24 -39 -64 -34 -48 5
-50 2 -27 -31 9 -13 14 -33 11 -44 -5 -17 1 -14 31 14 36 34 110 62 136 52 7
-3 41 22 76 55 55 51 62 62 51 75 -15 18 -59 19 -112 2z"/>
<path d="M3257 8296 c-25 -19 -59 -42 -75 -50 -25 -13 -41 -39 -42 -68 0 -13
59 -39 114 -49 44 -8 62 -7 95 7 62 24 67 43 46 150 -5 22 -43 44 -75 44 -10
0 -39 -15 -63 -34z m111 -23 c2 -8 -6 -13 -22 -13 -25 0 -33 10 -19 24 10 10
36 3 41 -11z m-91 -109 c-3 -3 -12 -4 -19 -1 -8 3 -5 6 6 6 11 1 17 -2 13 -5z"/>
<path d="M1840 7931 l0 -29 413 -6 c226 -4 624 -6 882 -4 l470 3 0 30 0 30
-882 3 -883 2 0 -29z"/>
<path d="M3220 7769 c0 -5 4 -9 9 -9 5 0 23 -23 41 -50 18 -28 35 -49 39 -47
3 2 24 12 46 22 l40 19 -35 6 c-34 5 -34 6 -13 18 12 6 30 12 40 12 17 1 17 1
-1 11 -13 8 -28 7 -59 -5 -38 -15 -41 -15 -53 3 -14 20 -54 35 -54 20z"/>
<path d="M3217 7690 c12 -5 27 -18 32 -29 9 -16 7 -24 -14 -45 -26 -26 -32
-46 -15 -46 6 0 10 -4 10 -10 0 -5 -7 -10 -15 -10 -19 0 -20 -43 -2 -62 8 -7
12 -19 9 -26 -13 -41 81 -59 118 -22 35 35 24 171 -15 186 -8 3 -31 21 -52 40
-20 19 -46 34 -57 33 -20 0 -20 -1 1 -9z m43 -90 c0 -5 -4 -10 -10 -10 -5 0
-10 5 -10 10 0 6 5 10 10 10 6 0 10 -4 10 -10z m27 -122 c-3 -8 -6 -5 -6 6 -1
11 2 17 5 13 3 -3 4 -12 1 -19z"/>
<path d="M2270 7653 c0 -37 -40 -69 -102 -82 -31 -7 -67 -21 -80 -33 -12 -11
-32 -26 -42 -34 -11 -7 -17 -16 -13 -20 3 -4 20 7 37 24 30 30 82 52 125 52
54 0 116 73 86 103 -8 8 -11 5 -11 -10z"/>
<path d="M2700 7570 c-8 -5 -10 -10 -5 -10 6 0 17 5 25 10 8 5 11 10 5 10 -5
0 -17 -5 -25 -10z"/>
<path d="M2550 7541 c0 -30 13 -32 46 -6 l29 24 -37 1 c-31 0 -38 -4 -38 -19z"/>
<path d="M2650 7550 c-8 -5 -10 -10 -5 -10 6 0 17 5 25 10 8 5 11 10 5 10 -5
0 -17 -5 -25 -10z"/>
<path d="M1847 7293 c-4 -3 -7 -19 -7 -35 l0 -28 883 2 882 3 0 30 0 30 -876
3 c-481 1 -879 -1 -882 -5z"/>
<path d="M2720 7025 c-7 -18 -17 -25 -35 -25 -27 0 -75 -40 -75 -62 0 -30 21
-83 42 -105 23 -25 83 -32 119 -13 44 24 65 122 33 154 -14 15 -13 16 15 16
20 0 31 5 31 14 0 18 -38 46 -62 46 -22 0 -33 -19 -19 -33 18 -18 13 -25 -15
-19 -21 4 -24 9 -20 28 8 32 -2 31 -14 -1z m-21 -61 c9 -8 -13 -24 -35 -24
-19 0 -24 -5 -25 -27 l0 -28 -10 25 c-7 17 -7 32 0 48 9 18 16 21 38 16 16 -4
30 -8 32 -10z"/>
<path d="M2027 7003 c-2 -5 3 -30 10 -56 19 -63 56 -87 136 -87 36 0 56 -4 52
-10 -8 -13 -70 -13 -117 0 -20 6 -48 25 -63 42 -31 37 -38 34 -20 -9 25 -59
131 -90 199 -58 20 9 36 21 36 26 0 4 14 21 32 38 26 24 30 32 19 44 -8 10 -9
17 -1 22 5 3 10 17 10 31 l0 25 -44 -31 c-34 -23 -56 -30 -93 -31 -36 0 -43
-3 -28 -9 11 -5 38 -10 60 -11 35 -2 36 -3 10 -6 -36 -6 -108 14 -100 27 3 6
-1 7 -9 4 -10 -4 -27 6 -45 25 -30 32 -37 36 -44 24z"/>
<path d="M3235 6990 c-4 -6 -10 -8 -15 -5 -5 3 -14 -4 -20 -16 -8 -15 -9 -19
-1 -15 7 5 11 -2 11 -18 0 -13 -5 -26 -11 -28 -16 -5 0 -34 27 -47 39 -17 105
-13 142 9 26 16 32 26 32 54 0 19 -7 42 -16 50 -17 18 -64 22 -64 5 0 -5 -4
-7 -10 -4 -5 3 -10 1 -10 -4 0 -19 -20 -12 -20 7 -1 15 -2 15 -16 -3 -16 -20
-16 -20 -9 3 6 22 -8 31 -20 12z"/>
<path d="M1842 6598 l3 -33 880 0 880 0 0 30 0 30 -883 3 -883 2 3 -32z"/>
<path d="M10530 8775 l0 -1025 253 2 252 3 3 1023 2 1022 -255 0 -255 0 0
-1025z"/>
<path d="M5240 9500 l0 -240 190 0 190 0 0 -755 0 -755 270 0 270 0 0 755 0
755 183 2 182 3 3 238 2 237 -645 0 -645 0 0 -240z"/>
<path d="M9980 9723 c-109 -38 -170 -127 -170 -249 0 -95 34 -164 104 -211 58
-39 103 -53 177 -53 167 0 281 105 282 260 1 120 -65 218 -171 254 -58 20
-164 20 -222 -1z"/>
<path d="M62 9123 c-18 -9 -40 -29 -48 -44 -42 -81 8 -162 107 -174 29 -3 230
-5 446 -3 379 3 392 4 420 24 15 11 35 40 43 63 14 39 13 45 -5 79 -39 72 -38
72 -510 72 -367 0 -424 -2 -453 -17z"/>
<path d="M8454 9126 c-68 -16 -132 -46 -213 -100 -30 -20 -55 -35 -57 -34 -1
2 -12 25 -23 51 l-20 47 -216 0 -215 0 0 -670 0 -670 255 0 255 0 0 438 c1
331 4 441 13 453 24 32 90 69 122 69 26 0 43 -10 77 -43 1 -1 5 -207 8 -457
l5 -455 247 -3 248 -2 2 446 3 447 36 29 c52 42 107 48 145 15 l29 -25 3 -456
3 -456 255 0 256 0 -5 503 c-4 408 -7 514 -20 567 -35 146 -87 224 -179 269
-169 83 -348 58 -529 -75 -59 -44 -63 -46 -76 -28 -7 11 -32 38 -54 61 -72 73
-227 108 -355 79z"/>
<path d="M13254 9125 c-72 -16 -173 -64 -231 -112 l-43 -34 -24 55 -25 56
-210 0 -211 0 0 -670 0 -670 250 0 250 0 0 437 0 436 40 38 c68 65 150 65 182
-1 16 -32 18 -76 18 -472 l0 -438 256 0 256 0 -5 513 c-3 306 -9 530 -15 557
-45 193 -132 282 -303 309 -80 13 -108 13 -185 -4z"/>
<path d="M6737 9115 c-85 -17 -126 -30 -198 -62 l-56 -24 -17 -167 c-9 -92
-19 -189 -22 -215 l-6 -48 50 25 c127 64 338 101 440 76 74 -17 102 -53 102
-131 l0 -59 -77 5 c-43 3 -96 8 -118 10 -62 6 -173 -13 -232 -40 -159 -72
-242 -247 -215 -451 15 -109 48 -180 117 -243 59 -53 114 -76 205 -87 99 -11
238 38 321 113 22 20 41 34 42 32 1 -2 12 -25 25 -51 l22 -48 210 0 210 0 0
463 c0 365 -3 476 -15 530 -39 183 -135 290 -320 353 -72 25 -96 28 -240 30
-110 2 -182 -1 -228 -11z m291 -932 c3 -99 2 -101 -24 -122 -29 -23 -101 -29
-135 -11 -45 25 -64 122 -34 180 25 48 52 61 125 58 l65 -3 3 -102z"/>
<path d="M11510 9111 c-91 -20 -213 -65 -228 -84 -7 -10 -54 -417 -48 -424 1
-1 29 12 63 28 135 65 334 95 436 65 66 -19 83 -42 93 -131 l7 -58 -64 7
c-131 14 -260 9 -331 -13 -70 -22 -150 -77 -187 -129 -61 -86 -86 -205 -70
-333 18 -150 80 -245 192 -299 140 -67 301 -42 442 71 l50 39 22 -50 23 -50
210 0 210 0 3 328 c4 630 1 676 -62 800 -32 63 -116 149 -177 180 -98 50 -172
65 -339 68 -129 3 -177 0 -245 -15z m318 -927 l3 -102 -34 -21 c-51 -31 -121
-29 -152 5 -48 52 -41 162 13 204 21 17 37 20 96 18 l71 -3 3 -101z"/>
<path d="M9840 8420 l0 -670 253 2 252 3 0 665 0 665 -252 3 -253 2 0 -670z"/>
<path d="M4156 7670 c-57 -29 -85 -58 -112 -115 l-24 -50 0 -703 c0 -688 0
-704 -20 -743 -12 -22 -35 -49 -53 -59 -31 -20 -59 -20 -1264 -20 -839 0
-1248 -3 -1282 -11 -65 -14 -123 -56 -158 -116 l-28 -48 0 -245 c0 -232 1
-247 22 -286 12 -22 36 -54 54 -72 63 -62 73 -63 499 -60 l385 3 34 63 c43 83
142 187 222 235 275 163 634 80 807 -186 23 -35 42 -68 42 -74 0 -5 8 -17 18
-27 17 -15 64 -16 523 -14 l504 3 35 65 c46 85 142 186 221 233 102 60 185 82
314 81 122 -1 193 -19 295 -77 74 -41 187 -158 230 -237 l35 -65 370 -3 c251
-2 382 1 408 8 54 16 122 82 144 138 17 43 18 90 18 577 0 421 -3 538 -14 570
-11 32 -129 156 -600 629 -397 399 -599 594 -626 607 -37 17 -71 19 -500 18
-437 0 -462 -1 -499 -19z"/>
<path d="M7056 7403 c-3 -10 -82 -450 -176 -978 -94 -528 -174 -970 -177 -983
l-5 -22 538 2 539 3 42 230 c23 127 40 236 38 243 -3 9 -65 12 -266 12 l-261
0 5 23 c3 12 13 65 22 117 8 52 18 107 21 122 l6 28 221 2 222 3 37 205 c21
113 37 213 38 222 0 16 -19 18 -217 20 -187 3 -218 5 -216 18 1 8 11 70 23
138 l22 122 259 0 259 0 5 23 c17 72 82 453 79 459 -3 5 -241 8 -529 8 -490 0
-524 -1 -529 -17z"/>
<path d="M10195 6797 c-61 -16 -98 -35 -158 -81 l-46 -35 -11 39 -11 40 -209
0 c-190 0 -209 -2 -214 -17 -3 -10 -23 -119 -45 -243 -22 -124 -97 -539 -166
-922 -69 -384 -125 -704 -125 -713 0 -13 33 -15 253 -15 l253 0 53 298 c29
163 55 298 56 300 2 2 20 -8 42 -22 57 -38 155 -60 235 -52 141 13 263 83 368
213 158 196 242 450 243 733 0 108 -4 136 -27 205 -43 132 -127 223 -241 260
-67 22 -188 28 -250 12z m-23 -436 c103 -82 22 -476 -112 -546 -38 -19 -103
-19 -141 1 -25 13 -29 20 -25 42 3 15 22 119 41 232 20 112 39 209 43 215 3 5
15 17 25 25 70 53 127 64 169 31z"/>
<path d="M11625 6796 c-52 -16 -117 -58 -175 -112 l-47 -44 -13 60 -13 60
-213 0 c-213 0 -214 0 -219 -22 -5 -25 -235 -1307 -235 -1314 0 -2 115 -4 255
-4 197 0 255 3 255 13 0 6 34 196 74 420 54 301 78 413 91 427 10 11 45 33 78
50 68 34 146 40 251 19 31 -7 59 -9 63 -5 6 5 17 82 57 398 l6 46 -50 11 c-65
14 -114 13 -165 -3z"/>
<path d="M12435 6799 c-311 -45 -539 -273 -637 -637 -29 -109 -36 -333 -14
-422 71 -280 313 -409 672 -359 92 13 228 51 292 82 l46 22 52 195 c29 107 51
196 49 198 -2 2 -45 -12 -97 -31 -122 -46 -227 -67 -335 -67 -104 0 -157 23
-185 80 -25 48 -24 100 1 100 10 0 75 5 144 10 298 24 481 110 554 258 26 53
28 65 28 182 0 107 -4 132 -22 173 -79 170 -290 253 -548 216z m140 -373 c45
-19 61 -54 49 -104 -13 -52 -79 -85 -208 -102 -53 -7 -99 -10 -103 -7 -11 11
55 131 90 165 31 30 92 60 125 62 7 0 28 -7 47 -14z"/>
<path d="M13520 6794 c-161 -34 -293 -135 -359 -273 -33 -70 -36 -85 -39 -181
-3 -89 -1 -114 18 -163 28 -75 111 -160 200 -206 131 -69 170 -98 170 -129 0
-107 -246 -99 -410 14 -29 20 -50 29 -50 22 0 -7 -11 -101 -25 -208 -14 -107
-25 -198 -25 -201 0 -10 110 -56 180 -75 50 -14 101 -18 220 -18 143 0 161 2
235 28 101 34 156 67 221 128 118 111 172 300 128 448 -21 71 -90 143 -191
199 -136 76 -182 109 -189 136 -11 44 4 75 44 92 53 22 150 3 258 -51 l84 -42
5 30 c9 56 45 351 45 372 0 16 -13 25 -64 43 -139 49 -326 63 -456 35z"/>
<path d="M14569 6795 c-36 -7 -95 -27 -133 -44 -181 -82 -278 -233 -279 -438
-1 -83 2 -97 31 -156 41 -84 111 -148 228 -209 103 -54 134 -80 134 -112 0
-103 -254 -91 -412 20 l-46 33 -6 -37 c-7 -44 -46 -366 -46 -380 0 -13 103
-58 181 -79 92 -25 341 -25 423 0 227 70 359 211 388 414 26 184 -40 289 -253
402 -115 62 -139 84 -139 132 0 31 5 42 27 56 54 36 190 10 310 -57 29 -17 53
-27 53 -23 0 5 11 97 25 206 14 109 23 203 20 208 -10 14 -156 57 -239 68 -99
14 -183 13 -267 -4z"/>
<path d="M8090 6753 c0 -5 47 -156 104 -338 57 -181 101 -334 97 -340 -4 -5
-112 -152 -239 -326 -128 -174 -232 -319 -232 -323 0 -3 127 -6 283 -6 l282 0
100 180 c58 105 102 175 106 167 4 -6 28 -87 54 -179 l48 -168 259 0 c242 0
259 1 254 18 -3 9 -51 157 -106 327 -55 171 -100 313 -100 316 0 4 90 152 201
330 110 177 203 328 206 336 4 11 -44 13 -264 13 l-268 0 -95 -190 c-72 -144
-96 -185 -102 -171 -4 11 -23 96 -44 190 l-37 171 -254 0 c-139 0 -253 -3
-253 -7z"/>
<path d="M472 6684 c-65 -28 -89 -103 -52 -162 38 -61 52 -63 441 -60 l351 3
29 33 c53 59 33 152 -38 180 -40 16 -696 21 -731 6z"/>
<path d="M2650 5419 c-91 -16 -194 -71 -264 -141 -106 -107 -152 -230 -144
-383 16 -264 228 -464 493 -465 140 0 250 46 353 147 234 231 181 620 -108
786 -89 50 -226 74 -330 56z m196 -267 c111 -57 164 -177 130 -293 -39 -137
-178 -209 -320 -167 -55 16 -138 99 -154 154 -52 177 77 344 254 330 28 -2 69
-13 90 -24z"/>
<path d="M4800 5419 c-189 -32 -362 -199 -400 -386 -17 -79 -8 -205 19 -275
78 -202 257 -328 466 -328 252 0 460 181 496 432 27 186 -66 385 -228 488 -93
59 -241 88 -353 69z m196 -267 c112 -57 165 -176 130 -293 -39 -137 -178 -209
-320 -167 -55 16 -138 99 -154 154 -52 177 77 344 254 330 28 -2 69 -13 90
-24z"/>
</g>
</svg>
