<?xml version="1.0" standalone="no"?>
<!DOCTYPE svg PUBLIC "-//W3C//DTD SVG 20010904//EN"
 "http://www.w3.org/TR/2001/REC-SVG-20010904/DTD/svg10.dtd">
<svg version="1.0" xmlns="http://www.w3.org/2000/svg"
 width="640.000000pt" height="640.000000pt" viewBox="0 0 640.000000 640.000000"
 preserveAspectRatio="xMidYMid meet">
<metadata>
Created by potrace 1.11, written by Peter Selinger 2001-2013
</metadata>
<g transform="translate(0.000000,640.000000) scale(0.100000,-0.100000)"
fill="#000000" stroke="none">
<path d="M1725 6294 c-60 -21 -135 -83 -170 -138 -30 -49 -30 -52 -35 -215
l-5 -166 -111 -5 c-111 -5 -130 -11 -161 -50 -33 -43 -18 -121 30 -153 21 -13
49 -17 132 -17 l105 0 0 -135 c0 -111 -3 -137 -15 -141 -22 -9 -22 -214 0
-214 13 0 15 -19 13 -132 l-3 -133 -93 -5 c-91 -5 -95 -6 -123 -38 -33 -37
-38 -85 -14 -132 22 -42 49 -53 145 -60 73 -4 85 -8 84 -22 0 -10 -1 -67 -2
-128 l-2 -110 -447 0 c-426 0 -450 -1 -480 -20 -47 -28 -62 -85 -37 -137 37
-75 32 -74 527 -71 l437 3 0 -127 0 -128 -170 0 c-184 0 -223 -8 -254 -51 -18
-27 -21 -87 -5 -122 21 -47 51 -55 247 -62 l182 -8 0 -168 0 -169 -320 0 -320
0 -32 -29 c-29 -26 -33 -35 -33 -81 0 -45 4 -55 31 -80 31 -27 37 -28 175 -35
79 -4 222 -5 317 -3 l172 3 0 -109 c0 -103 -1 -108 -17 -94 -10 8 -27 18 -37
22 -10 3 -222 3 -470 0 l-451 -7 -32 -33 c-56 -55 -39 -144 34 -179 35 -17 69
-18 474 -13 375 5 440 8 467 22 l31 16 3 -373 3 -373 26 -49 c42 -82 130 -136
220 -134 345 9 621 11 1198 9 541 -1 691 1 686 11 -6 9 -1 10 19 5 20 -5 26
-4 20 5 -5 9 -2 10 11 6 23 -9 110 75 101 98 -3 8 -1 15 4 15 5 0 6 7 3 17 -4
9 -2 14 3 11 5 -4 10 667 13 1704 2 1317 0 1712 -9 1718 -7 4 3 13 27 23 21 8
49 27 62 41 l24 26 15 -21 c31 -45 130 -63 195 -35 40 17 71 51 64 70 -3 8
-89 134 -191 280 l-186 265 -1 73 c-2 65 -3 68 -10 33 -6 -35 -7 -32 -5 22 1
36 -2 59 -7 56 -5 -3 -6 3 -3 14 4 13 -4 34 -24 61 -17 23 -33 42 -37 42 -3 0
0 -8 8 -18 8 -10 4 -8 -7 4 -12 13 -25 20 -28 17 -3 -4 -6 -1 -6 6 0 7 -4 9
-10 6 -5 -3 -10 -2 -10 3 0 6 -9 8 -20 5 -12 -3 -20 0 -20 7 0 11 -174 12
-912 8 -502 -3 -902 -2 -888 2 21 7 19 8 -15 8 -22 0 -58 -6 -80 -14z m64 -7
c-2 -2 -17 -11 -34 -21 l-30 -17 24 20 c13 12 28 21 34 21 6 0 8 -1 6 -3z
m-97 -86 c-9 -16 -18 -28 -21 -26 -4 5 27 55 34 55 2 0 -4 -13 -13 -29z m-35
-443 c-1 -68 -3 -13 -3 122 0 135 2 190 3 123 2 -68 2 -178 0 -245z m376 305
c3 -5 -60 -7 -140 -5 l-145 3 45 -58 c24 -32 135 -175 246 -317 144 -186 201
-267 201 -286 0 -44 50 -83 112 -87 64 -5 112 17 144 64 l21 32 12 -25 c32
-71 214 -72 252 -3 11 22 11 22 33 -4 40 -50 120 -61 193 -28 24 11 44 29 48
42 l8 23 14 -27 c19 -38 63 -57 130 -57 60 0 118 25 129 55 8 21 21 19 29 -4
20 -65 197 -66 237 -2 17 27 22 26 36 -3 6 -14 27 -30 46 -37 l36 -13 0 -1697
0 -1696 -1006 -7 c-553 -4 -1008 -5 -1011 -2 -5 5 10 2263 23 3534 l6 612 149
0 c81 0 150 -3 152 -7z m568 -10 c12 -16 12 -17 -2 -6 -10 8 -63 14 -145 16
l-129 3 131 2 c115 2 133 0 145 -15z m436 10 l-129 -4 16 -24 c23 -35 12 -31
-14 5 l-21 30 138 -2 138 -2 -128 -3z m672 3 c-7 -7 -239 -9 -246 -2 -4 3 51
6 122 6 71 0 126 -2 124 -4z m-1629 -66 c30 -43 18 -37 -16 7 -15 20 -23 33
-16 29 6 -3 21 -20 32 -36z m960 -127 c28 -40 49 -73 46 -73 -4 0 -50 63 -124
170 l-24 35 26 -30 c14 -16 49 -63 76 -102z m-379 100 c13 -16 12 -17 -3 -4
-10 7 -18 15 -18 17 0 8 8 3 21 -13z m-540 -30 c13 -16 12 -17 -3 -4 -17 13
-22 21 -14 21 2 0 10 -8 17 -17z m49 -63 c30 -43 18 -37 -16 7 -15 20 -23 33
-16 29 6 -3 21 -20 32 -36z m41 -57 c13 -16 12 -17 -3 -4 -10 7 -18 15 -18 17
0 8 8 3 21 -13z m49 -63 c30 -43 18 -37 -16 7 -15 20 -23 33 -16 29 6 -3 21
-20 32 -36z m926 -92 c48 -68 92 -129 97 -135 5 -7 7 -13 4 -13 -3 0 -38 46
-78 103 -40 56 -84 117 -97 135 -13 17 -22 32 -19 32 3 0 45 -55 93 -122z
m-885 35 c13 -16 12 -17 -3 -4 -10 7 -18 15 -18 17 0 8 8 3 21 -13z m51 -65
c12 -17 17 -28 10 -25 -6 4 -21 22 -34 39 -12 17 -17 28 -10 25 6 -4 21 -22
34 -39z m39 -55 c13 -16 12 -17 -3 -4 -10 7 -18 15 -18 17 0 8 8 3 21 -13z
m51 -65 c12 -17 17 -28 10 -25 -6 4 -21 22 -34 39 -12 17 -17 28 -10 25 6 -4
21 -22 34 -39z m909 -80 c19 -34 2 -17 -30 30 -25 35 -26 40 -6 17 14 -16 30
-38 36 -47z m-850 0 c15 -28 5 -21 -21 15 -15 20 -17 27 -6 18 9 -8 22 -23 27
-33z m1390 25 c13 -16 12 -17 -3 -4 -10 7 -18 15 -18 17 0 8 8 3 21 -13z
m-1100 -10 c13 -16 12 -17 -3 -4 -10 7 -18 15 -18 17 0 8 8 3 21 -13z m-1144
-981 c-1 -152 -2 -25 -2 283 0 308 1 433 2 277 2 -156 2 -408 0 -560z m-10
-1289 c-1 -120 -2 -22 -2 217 0 239 1 337 2 218 2 -120 2 -316 0 -435z m-10
-1160 c-1 -82 -3 -15 -3 147 0 162 2 229 3 148 2 -82 2 -214 0 -295z m66 -253
l32 -35 -33 30 c-35 31 -62 74 -62 97 1 7 8 -3 16 -22 8 -19 29 -51 47 -70z
m2067 46 c0 -2 -8 -10 -17 -17 -16 -13 -17 -12 -4 4 13 16 21 21 21 13z
m-1983 -92 c-3 -3 -12 -4 -19 -1 -8 3 -5 6 6 6 11 1 17 -2 13 -5z"/>
<path d="M3310 5055 l0 -95 95 0 c88 0 98 2 120 25 27 26 34 80 14 117 -17 31
-71 48 -154 48 l-75 0 0 -95z m128 53 c7 -7 12 -24 12 -38 0 -15 9 -35 20 -45
11 -10 17 -22 14 -27 -3 -5 -16 0 -29 12 -13 13 -28 18 -39 14 -22 -8 -56 22
-56 51 0 27 18 45 45 45 12 0 26 -5 33 -12z"/>
<path d="M3385 5094 c-18 -18 -16 -33 7 -47 35 -22 66 21 36 51 -16 16 -23 15
-43 -4z"/>
<path d="M2143 4759 c-16 -16 4 -56 30 -63 27 -7 31 -2 18 21 -5 10 -12 26
-15 36 -6 20 -17 22 -33 6z"/>
<path d="M2760 4691 c-68 -10 -88 -26 -101 -77 -9 -34 -20 -51 -42 -65 l-31
-18 28 -11 c15 -5 32 -10 37 -10 5 0 9 -15 10 -32 l1 -33 12 39 c8 24 21 42
34 47 20 7 22 5 22 -21 0 -28 3 -30 38 -30 57 0 98 30 106 78 9 56 -2 99 -32
122 -13 11 -27 19 -31 19 -3 -1 -26 -5 -51 -8z"/>
<path d="M3348 4672 c-15 -3 -16 -11 -11 -50 6 -51 -5 -50 -22 1 -6 21 -17 33
-32 35 -19 3 -21 0 -17 -40 l5 -43 -18 33 c-10 19 -24 32 -36 32 -17 0 -18 -5
-13 -37 l7 -38 -24 29 -24 30 -27 -27 c-32 -32 -33 -51 -1 -82 29 -30 78 -33
174 -9 113 28 171 67 171 115 0 31 -14 44 -52 51 -26 5 -28 3 -28 -28 0 -19
-4 -34 -10 -34 -5 0 -10 10 -10 23 0 30 -11 44 -32 39z"/>
<path d="M1850 4253 l0 -33 645 -2 c355 -2 750 -3 878 -3 l232 0 3 28 c2 16
-2 29 -10 32 -7 2 -403 6 -881 7 l-867 3 0 -32z"/>
<path d="M2208 3993 c6 -2 18 -2 25 0 6 3 1 5 -13 5 -14 0 -19 -2 -12 -5z"/>
<path d="M2780 3975 c0 -11 -7 -13 -28 -9 -37 8 -77 -33 -68 -70 5 -22 3 -26
-16 -26 -20 -1 -21 -2 -6 -10 35 -21 96 -5 148 39 61 52 78 79 54 88 -10 4
-20 0 -26 -11 -5 -9 -14 -14 -19 -11 -5 4 -7 11 -4 16 4 5 -3 9 -14 9 -12 0
-21 -7 -21 -15z m-50 -35 c0 -5 -5 -10 -11 -10 -5 0 -7 5 -4 10 3 6 8 10 11
10 2 0 4 -4 4 -10z m25 0 c3 -5 1 -10 -4 -10 -6 0 -11 5 -11 10 0 6 2 10 4 10
3 0 8 -4 11 -10z m30 0 c3 -5 1 -10 -4 -10 -6 0 -11 5 -11 10 0 6 2 10 4 10 3
0 8 -4 11 -10z m-75 -30 c0 -5 -4 -10 -10 -10 -5 0 -10 5 -10 10 0 6 5 10 10
10 6 0 10 -4 10 -10z m27 -12 c-3 -8 -6 -5 -6 6 -1 11 2 17 5 13 3 -3 4 -12 1
-19z m-12 -18 c3 -5 1 -10 -4 -10 -6 0 -11 5 -11 10 0 6 2 10 4 10 3 0 8 -4
11 -10z"/>
<path d="M2200 3972 c-36 -2 -48 -8 -55 -25 -6 -12 -20 -23 -32 -25 -27 -4
-29 -14 -8 -32 12 -10 15 -10 15 3 0 29 34 38 74 22 40 -17 45 -29 17 -45 -23
-12 -71 -13 -71 -2 0 4 -18 8 -40 7 -31 0 -40 -4 -40 -17 0 -15 12 -17 100
-17 l100 0 0 57 c0 31 -4 62 -8 67 -4 6 -27 9 -52 7z"/>
<path d="M3284 3967 c-11 -7 -36 -24 -56 -39 -19 -16 -40 -28 -45 -28 -6 0
-16 -6 -22 -14 -18 -22 40 -48 119 -54 56 -3 69 -1 93 18 36 28 39 91 5 114
-27 19 -65 20 -94 3z m81 -36 c0 -8 -4 -16 -10 -18 -16 -5 -38 14 -30 26 9 16
40 9 40 -8z m15 -36 c0 -2 -10 -9 -22 -15 -22 -11 -22 -10 -4 4 21 17 26 19
26 11z"/>
<path d="M2068 3940 c-5 -30 -4 -30 14 -10 10 11 23 20 28 20 6 0 10 5 10 10
0 6 -11 10 -24 10 -19 0 -25 -6 -28 -30z"/>
<path d="M3378 3837 c-34 -26 -134 -28 -190 -4 -21 9 -38 12 -38 8 0 -16 27
-31 88 -46 75 -19 133 -8 158 31 22 33 15 36 -18 11z"/>
<path d="M2606 3820 c-8 -16 -14 -30 -13 -30 1 0 15 14 30 30 20 21 24 30 14
30 -9 0 -22 -13 -31 -30z"/>
<path d="M1850 3585 l0 -35 880 0 880 0 0 28 0 29 -307 6 c-170 4 -566 7 -880
7 l-573 0 0 -35z"/>
<path d="M3264 3386 c19 -25 36 -50 38 -56 2 -6 18 -3 43 10 35 18 31 27 -7
21 -22 -3 -4 22 25 34 l32 14 -30 1 c-17 0 -41 -7 -54 -16 -22 -16 -24 -16
-33 -1 -5 9 -18 22 -29 27 -14 8 -10 -2 15 -34z"/>
<path d="M3236 3342 c20 -13 32 -47 27 -75 -6 -30 -23 -37 -23 -9 0 13 -2 14
-9 4 -4 -7 -6 -24 -3 -38 2 -14 0 -24 -7 -24 -6 0 -11 -11 -11 -25 0 -14 5
-25 11 -25 5 0 9 -8 8 -17 -3 -31 1 -36 16 -23 15 12 20 4 16 -22 0 -5 10 -8
24 -8 17 0 25 6 26 18 0 15 1 15 8 -2 7 -18 8 -18 24 5 18 26 23 109 7 109 -6
0 -8 10 -4 24 3 14 0 28 -8 35 -7 6 -31 27 -53 46 -22 19 -44 35 -50 35 -6 0
-5 -3 1 -8z m94 -94 c0 -16 -3 -19 -11 -11 -6 6 -8 16 -5 22 11 17 16 13 16
-11z m-30 -24 c0 -8 -4 -14 -10 -14 -5 0 -10 9 -10 21 0 11 5 17 10 14 6 -3
10 -13 10 -21z m-44 -51 c-11 -11 -19 6 -11 24 8 17 8 17 12 0 3 -10 2 -21 -1
-24z m70 0 c-10 -10 -19 5 -10 18 6 11 8 11 12 0 2 -7 1 -15 -2 -18z m-26 -27
c0 -17 -14 -29 -23 -20 -8 8 3 34 14 34 5 0 9 -6 9 -14z m47 -18 c-3 -8 -6 -5
-6 6 -1 11 2 17 5 13 3 -3 4 -12 1 -19z"/>
<path d="M2270 3299 c0 -13 -10 -33 -22 -46 -12 -13 -17 -23 -10 -23 13 0 52
48 52 66 0 7 -4 16 -10 19 -6 3 -10 -4 -10 -16z"/>
<path d="M2188 3223 c6 -2 18 -2 25 0 6 3 1 5 -13 5 -14 0 -19 -2 -12 -5z"/>
<path d="M2551 3203 c0 -5 4 -16 8 -26 6 -16 9 -16 31 8 l23 25 -31 0 c-18 0
-32 -3 -31 -7z"/>
<path d="M1850 2920 l0 -30 870 0 c479 0 873 -1 878 -2 4 -2 8 12 10 30 l3 32
-880 0 -881 0 0 -30z"/>
<path d="M2770 2687 c0 -21 22 -37 52 -37 34 0 36 13 6 34 -27 19 -58 21 -58
3z"/>
<path d="M2712 2664 c-7 -8 -22 -14 -32 -14 -11 0 -20 -4 -20 -10 0 -5 12 -10
26 -10 36 0 29 -34 -9 -38 -23 -3 -27 -8 -27 -33 0 -18 -4 -28 -10 -24 -17 11
-11 -11 11 -39 17 -22 28 -26 69 -26 68 0 100 37 100 115 0 36 -28 65 -62 65
-9 0 -21 6 -25 14 -7 12 -10 12 -21 0z"/>
<path d="M2030 2646 c0 -8 5 -18 10 -21 6 -3 10 -16 10 -29 0 -49 86 -93 158
-80 33 6 45 -9 16 -20 -51 -20 -144 4 -178 45 -29 34 -33 31 -11 -10 29 -57
157 -81 209 -40 14 11 26 25 26 30 0 6 12 21 28 34 33 29 27 38 -19 25 -18 -6
-49 -10 -68 -10 -46 0 -148 47 -154 71 -6 22 -27 26 -27 5z"/>
<path d="M2282 2632 c-19 -14 -52 -29 -75 -33 -36 -7 -33 -8 21 -5 65 2 97 20
90 49 -2 12 -10 10 -36 -11z"/>
<path d="M3240 2635 c-9 -11 -15 -12 -20 -5 -4 6 -6 -4 -6 -22 0 -18 -3 -42
-7 -54 -6 -16 -2 -23 18 -32 52 -24 145 -11 167 22 12 17 9 71 -4 84 -15 15
-58 16 -58 1 0 -6 -6 -9 -14 -6 -8 3 -17 1 -20 -6 -5 -9 -7 -9 -12 1 -5 10 -9
10 -22 0 -13 -11 -15 -10 -10 10 7 26 5 27 -12 7z"/>
<path d="M1850 2255 l0 -35 881 0 880 0 -3 33 -3 32 -877 3 -878 2 0 -35z"/>
<path d="M84 4789 c-50 -14 -79 -53 -79 -109 0 -34 6 -54 20 -70 43 -49 57
-50 502 -50 400 0 419 1 451 20 18 11 40 36 49 55 15 32 16 40 3 77 -28 78
-12 76 -490 81 -234 2 -439 0 -456 -4z"/>
<path d="M4188 3336 c-84 -30 -139 -93 -157 -177 -7 -33 -11 -286 -11 -738 l0
-688 -22 -33 c-13 -18 -39 -41 -58 -51 -33 -18 -87 -19 -1275 -19 -800 0
-1253 -4 -1276 -10 -84 -24 -153 -99 -168 -185 -4 -27 -6 -150 -2 -272 l6
-221 30 -43 c17 -24 53 -57 80 -74 l48 -30 396 0 396 0 28 55 c115 219 319
338 562 328 221 -9 411 -130 513 -326 15 -30 36 -55 47 -58 11 -2 240 -3 510
-2 l490 3 35 65 c50 93 167 208 257 254 238 119 514 76 698 -108 41 -42 84
-98 104 -136 19 -36 39 -68 45 -72 19 -13 724 -9 768 4 56 16 121 78 147 138
21 50 22 55 19 593 -3 536 -3 542 -25 582 -27 50 -1165 1186 -1213 1212 -32
17 -69 18 -485 20 -358 2 -458 0 -487 -11z m690 -293 c-76 -2 -200 -2 -275 0
-76 1 -14 3 137 3 151 0 213 -2 138 -3z m-458 -16 c0 -2 -10 -12 -22 -23 l-23
-19 19 23 c18 21 26 27 26 19z m-53 -504 c-1 -82 -3 -15 -3 147 0 162 2 229 3
148 2 -82 2 -214 0 -295z m878 317 c27 -27 47 -50 44 -50 -3 0 -27 23 -54 50
-27 28 -47 50 -44 50 3 0 27 -22 54 -50z m230 -240 c27 -27 47 -50 44 -50 -3
0 -27 23 -54 50 -27 28 -47 50 -44 50 3 0 27 -22 54 -50z m123 -145 c-3 -3 -9
2 -12 12 -6 14 -5 15 5 6 7 -7 10 -15 7 -18z m2 -92 c-11 -17 -11 -17 -6 0 3
10 7 33 8 50 l1 32 4 -32 c2 -18 -1 -41 -7 -50z m-337 -70 c-150 -2 -396 -2
-546 0 -149 1 -27 2 273 2 300 0 422 -1 273 -2z"/>
<path d="M468 2335 c-53 -30 -75 -116 -42 -163 33 -48 47 -50 414 -53 269 -3
350 -1 368 9 30 17 62 70 62 102 0 30 -32 85 -57 98 -10 5 -175 13 -368 16
-306 6 -353 5 -377 -9z"/>
<path d="M2628 1064 c-263 -63 -431 -325 -377 -586 39 -187 200 -348 387 -387
334 -69 644 223 593 559 -43 288 -326 482 -603 414z m212 -255 c60 -27 98 -64
126 -124 78 -164 -43 -355 -226 -355 -139 0 -250 111 -250 250 0 179 189 302
350 229z"/>
<path d="M4783 1065 c-251 -55 -426 -311 -384 -562 34 -200 178 -356 377 -408
266 -69 548 113 604 390 24 115 -5 264 -71 367 -65 101 -185 183 -311 213 -76
18 -133 18 -215 0z m212 -259 c55 -25 110 -81 131 -132 21 -51 18 -150 -7
-201 -98 -203 -394 -184 -465 30 -68 204 146 394 341 303z"/>
</g>
</svg>
