<svg id="Capa_1" enable-background="new 0 0 512 512" height="512" viewBox="0 0 512 512" width="512" xmlns="http://www.w3.org/2000/svg"><g><path d="m186.012 404.367v-129.998c0-4.139 3.345-7.484 7.512-7.484 4.139 0 7.483 3.346 7.483 7.484v129.998h20.892v-250.868c0-8.732 7.682-15.933 20.07-20.496 10.119-3.714 23.952-6.038 39.09-6.038s28.971 2.324 39.091 6.038c12.387 4.564 20.068 11.764 20.068 20.496h-.027l.312 38.381h20.607v-44.447c0-8.108-3.883-15.847-10.63-22.565-7.342-7.312-18-13.379-30.784-17.518h-77.246c-12.813 4.139-23.471 10.205-30.813 17.518-6.746 6.719-10.63 14.457-10.63 22.565v92.978c0 4.139-3.345 7.482-7.483 7.482-4.167 0-7.512-3.344-7.512-7.482v-92.978c0-12.304 5.499-23.642 15.08-33.167 8.193-8.164 19.446-14.967 32.741-19.785v-55.023c0-10.855 4.422-20.721 11.565-27.863 7.144-7.145 17.008-11.595 27.865-11.595h15.591c10.857 0 20.723 4.45 27.865 11.595 7.143 7.143 11.594 17.008 11.594 27.863v55.022c13.267 4.818 24.521 11.621 32.74 19.785 9.554 9.525 15.053 20.863 15.053 33.167v44.447h64.943c7.937 0 15.137 3.23 20.353 8.447 5.216 5.216 8.447 12.416 8.447 20.354 0 7.937-3.231 15.137-8.447 20.353s-12.416 8.447-20.353 8.447h-33.677v43.881c23.782 9.922 44.08 26.448 58.593 47.311 15.591 22.423 23.896 48.984 23.896 76.424 0 16.016-2.807 31.692-8.391 46.686-5.612 15.08-13.861 28.886-24.18 40.848-4.224 4.932-9.269 7.37-15.817 7.37h-293.644c-10.857 0-20.722-4.422-27.865-11.565-7.171-7.142-11.594-17.008-11.594-27.864v-28.743c0-10.858 4.422-20.723 11.594-27.866 7.143-7.172 17.008-11.594 27.865-11.594h38.183zm199.193-26.05c6.406 0 12.331 1.956 17.291 5.272 1.588 1.078 3.09 2.324 4.479 3.685 1.361-1.36 2.863-2.606 4.451-3.685 4.961-3.316 10.885-5.272 17.291-5.272 8.532 0 16.272 3.458 21.885 9.071 5.612 5.584 9.07 13.322 9.07 21.883 0 6.605-2.522 13.521-6.265 20.154-1.672 2.948-3.6 5.867-5.641 8.646h25.285c1.19-6.804 1.814-13.806 1.814-20.977 0-18.738-4.309-36.454-12.02-52.215h-90.029c-4.139 0-7.483-3.374-7.483-7.513s3.345-7.483 7.483-7.483h81.27c-13.663-19.899-32.968-35.263-55.503-43.937h-85.494c-22.508 8.645-41.897 24.037-55.532 43.937h81.299c4.139 0 7.483 3.345 7.483 7.483 0 4.139-3.345 7.513-7.483 7.513h-90.029c-5.952 12.16-9.893 25.455-11.367 39.486h65c10.857 0 20.722 4.422 27.893 11.594 5.84 5.84 9.894 13.55 11.141 22.111h24.662c-2.042-2.779-3.97-5.67-5.642-8.618-3.742-6.633-6.265-13.55-6.265-20.183 0-8.561 3.458-16.299 9.07-21.883 5.616-5.611 13.354-9.069 21.886-9.069zm8.9 17.689c-2.522-1.701-5.584-2.693-8.9-2.693-4.394 0-8.391 1.785-11.282 4.678-2.891 2.891-4.677 6.859-4.677 11.281 0 4.309 2.183 9.1 4.28 12.812 3.43 5.867 7.398 10.971 11.962 15.988h42.945c4.309-4.734 8.787-10.318 11.963-15.96 2.552-4.535 4.28-9.015 4.28-12.841 0-4.422-1.785-8.391-4.677-11.281-2.893-2.893-6.89-4.678-11.283-4.678-3.316 0-6.378.992-8.9 2.693-2.637 1.785-4.706 4.309-5.925 7.256-.708 1.843-2.183 3.373-4.139 4.167-3.854 1.53-8.192-.312-9.723-4.167-1.189-2.946-3.287-5.47-5.924-7.255zm-137.765-161.294c-4.139 0-7.483-3.345-7.483-7.455 0-4.139 3.345-7.483 7.483-7.483h47.964c.255-7.569 3.43-14.429 8.447-19.446 3.515-3.486 7.908-6.095 12.812-7.455l-.312-39.373h-.028c0-1.786-3.911-4.111-10.204-6.436-8.561-3.146-20.552-5.102-33.96-5.102-13.38 0-25.37 1.955-33.931 5.102-6.321 2.325-10.233 4.65-10.233 6.436v201.743c3.062-5.839 6.548-11.48 10.432-16.81 13.578-18.709 31.89-33.761 53.207-43.427h-44.194c-4.139 0-7.483-3.346-7.483-7.484 0-4.11 3.345-7.455 7.483-7.455h47.964v-15.223h-47.964c-4.139 0-7.483-3.344-7.483-7.455 0-4.139 3.345-7.482 7.483-7.482h47.964v-15.194h-47.964zm6.293-45.186c-4.139 0-7.512-3.373-7.512-7.512 0-4.138 3.373-7.482 7.512-7.482h10.914v-10.942c0-4.139 3.373-7.483 7.512-7.483s7.512 3.345 7.512 7.483v10.942h10.914c4.139 0 7.512 3.345 7.512 7.482 0 4.139-3.373 7.512-7.512 7.512h-10.915v10.942c0 4.138-3.373 7.483-7.512 7.483s-7.512-3.346-7.512-7.483v-10.942zm-73.73 258.78c-4.138 0-7.483-3.373-7.483-7.513 0-4.139 3.345-7.484 7.483-7.484h72.483c4.139 0 7.512 3.346 7.512 7.484 0 4.14-3.373 7.513-7.512 7.513zm-82.517-330.072h17.716c4.139 0 7.512 3.346 7.512 7.483 0 4.139-3.373 7.513-7.512 7.513h-17.716v21.855h17.716c4.139 0 7.512 3.345 7.512 7.512 0 4.139-3.373 7.483-7.512 7.483h-17.716v21.855h17.716c4.139 0 7.512 3.373 7.512 7.512s-3.373 7.483-7.512 7.483h-17.716v17.32h39.685v-123.335h-39.685zm-1.021-32.314h48.217c4.139 0 7.484 3.345 7.484 7.512v138.332c0 4.139-3.345 7.484-7.484 7.484h-48.217c-1.332 4.762-3.855 9.014-7.257 12.415s-7.654 5.925-12.416 7.257v245.597c0 4.139-3.345 7.483-7.483 7.483h-48.559c-4.138 0-7.512-3.345-7.512-7.483v-324.94c0-4.139 3.373-7.512 7.512-7.512s7.483 3.373 7.483 7.512v317.428h33.563v-244.576c0-4.139 3.373-7.511 7.512-7.511 3.6 0 6.916-1.475 9.298-3.857 2.381-2.409 3.884-5.697 3.884-9.298v-138.331c0-3.629-1.503-6.917-3.884-9.326-2.381-2.381-5.698-3.855-9.298-3.855h-27.893c-3.6 0-6.917 1.475-9.298 3.855-2.381 2.409-3.884 5.697-3.884 9.326v52.157c0 4.14-3.345 7.513-7.483 7.513s-7.512-3.373-7.512-7.513v-52.157c0-7.768 3.175-14.826 8.277-19.928 5.103-5.104 12.161-8.278 19.899-8.278h27.893c7.739 0 14.797 3.175 19.9 8.278 3.403 3.401 5.926 7.653 7.258 12.416zm136.774 394.332c-4.139 0-7.512-3.373-7.512-7.512s3.373-7.483 7.512-7.483h28.375c6.718 0 12.841-2.75 17.263-7.2 4.45-4.422 7.201-10.545 7.201-17.264v-21.43c-46.546 0-93.091 0-139.666 0v21.43c0 6.719 2.749 12.842 7.2 17.264 4.422 4.45 10.545 7.2 17.263 7.2h28.375c4.139 0 7.512 3.345 7.512 7.483 0 4.139-3.373 7.512-7.512 7.512h-28.375c-10.857 0-20.722-4.45-27.865-11.594s-11.594-17.008-11.594-27.865v-20.24c-3.714 1.22-7.059 3.289-9.751 6.01-4.451 4.422-7.2 10.545-7.2 17.265v28.743c0 6.689 2.75 12.812 7.2 17.263 4.422 4.422 10.545 7.172 17.263 7.172h154.632c6.718 0 12.841-2.75 17.263-7.172 4.45-4.45 7.2-10.573 7.2-17.263 0-9.581 0-19.163 0-28.743 0-6.72-2.75-12.843-7.2-17.265-2.692-2.721-6.037-4.79-9.751-6.01v20.24c0 10.857-4.422 20.722-11.594 27.865-7.145 7.144-17.009 11.594-27.865 11.594zm99.78-27.185v19.503c0 9.212-3.203 17.716-8.532 24.435h108.087c2.126 0 3.146-.566 4.507-2.154 9.185-10.63 16.526-22.904 21.487-36.283.68-1.815 1.304-3.657 1.898-5.5-42.492-.001-84.955-.001-127.447-.001zm50.458-162.143v-43.115c0-3.855 1.219-7.144 3.713-9.609 2.381-2.41 5.584-3.714 9.609-3.714h35.35c3.77 0 7.228-1.56 9.751-4.054 2.494-2.523 4.054-5.953 4.054-9.751 0-3.799-1.56-7.229-4.054-9.752-2.523-2.494-5.981-4.054-9.751-4.054h-107.946c-3.799 0-7.257 1.56-9.751 4.054-2.495 2.523-4.054 5.953-4.054 9.752v70.243zm-79.088-198.57v-52.896c0-6.717-2.749-12.84-7.172-17.262-4.45-4.451-10.545-7.201-17.264-7.201h-15.591c-6.718 0-12.812 2.75-17.263 7.201-4.422 4.422-7.172 10.545-7.172 17.262v52.896z"/></g></svg>