<svg id="Capa_1" enable-background="new 0 0 511.058 511.058" height="512" viewBox="0 0 511.058 511.058" width="512" xmlns="http://www.w3.org/2000/svg"><path d="m419.915 45.818c4.049-9.843-.665-21.145-10.507-25.192l-46.608-19.176c-9.842-4.045-21.145.666-25.192 10.508l-48.481 117.842c-3.877-1.75-7.936-3.158-12.139-4.185l-2.005-.489c1.447-8.969.069-18.286-4.051-26.498-5.379-10.722-15.063-18.82-26.566-22.219l-6.938-2.05c-4.906-1.452-10.123-.029-13.617 3.706-3.494 3.734-4.563 9.035-2.79 13.832 1.971 5.333 1.34 11.391-1.685 16.203l-2.624 4.173c-10.784-.21-21.362 2.812-30.486 8.702-2.745-.844-5.584-1.468-8.493-1.87v-3.322c0-6.556 2.553-12.719 7.189-17.354l4.518-4.519c2.929-2.929 2.928-7.678 0-10.606-2.93-2.928-7.678-2.929-10.607.001l-4.518 4.518c-7.469 7.469-11.582 17.398-11.582 27.961v3.322c-26.513 3.667-47 26.465-47 53.972 0 19.93 10.758 37.385 26.767 46.89-5.485 2.699-10.626 6.146-15.233 10.319-12.173 11.028-19.781 26.2-21.451 42.4-9.27 2.46-16.123 10.921-16.123 20.955 0 10.307 7.232 18.951 16.886 21.141l29.418 166.038c3.104 17.521 18.273 30.237 36.066 30.237h151.942c17.793 0 32.962-12.717 36.067-30.237l29.462-166.288c9.153-2.539 15.894-10.94 15.894-20.891 0-9.718-6.426-17.962-15.253-20.708-1.992-15.316-10.901-28.474-23.676-36.112-.536-13.008-3.985-25.653-9.932-37.021zm-68.435-28.154c.902-2.192 3.42-3.241 5.615-2.342l46.607 19.176c2.193.901 3.244 3.421 2.341 5.614l-59.483 144.586c-2.322-2.821-4.83-5.502-7.51-8.029l16.24-39.475c1.576-3.831-.252-8.214-4.083-9.789-3.833-1.578-8.214.252-9.79 4.082l-14.626 35.552c-.764-.497-1.534-.985-2.312-1.457-1.116-2.556-2.376-5.029-3.773-7.409.001-.003.003-.005.004-.008l46.014-111.848 8.323 3.425-22.165 53.876c-1.576 3.831.252 8.214 4.083 9.789 3.832 1.578 8.213-.252 9.79-4.082l25.018-60.813c.757-1.84.752-3.904-.014-5.74s-2.229-3.292-4.069-4.049l-22.195-9.131c-3.833-1.578-8.213.252-9.79 4.082l-45.564 110.753c-2.476-2.507-5.138-4.824-7.962-6.931zm-131.588 109.826c2.857.313 5.624-1.039 7.149-3.465l4.993-7.939c4.949-7.873 6.364-17.58 3.973-26.504l4.108 1.213c7.649 2.261 13.832 7.432 17.409 14.561 3.577 7.13 4.027 15.177 1.267 22.66-.74 2.006-.588 4.231.416 6.118 1.004 1.888 2.765 3.256 4.842 3.764l9.38 2.291c10.195 2.49 19.302 7.836 26.411 15.186-9.58-2.353-19.575-3.105-29.551-2.106l-47.684 4.766c-3.324-11.554-10.362-21.551-19.75-28.588 5.424-1.886 11.221-2.578 17.037-1.957zm-89.159 45.588c0-21.78 17.72-39.5 39.5-39.5s39.5 17.72 39.5 39.5-17.72 39.5-39.5 39.5-39.5-17.72-39.5-39.5zm-19.36 113.883h272.372c3.684 0 6.681 2.997 6.681 6.681 0 3.685-2.997 6.682-6.681 6.682h-272.372c-3.684 0-6.681-2.997-6.681-6.682 0-3.684 2.997-6.681 6.681-6.681zm203.913 191.611c-1.24 9.806-6.963 17.486-13.03 17.486h-10.83c1.487-4.502 2.481-9.901 2.885-16.055l10.816-164.68h30.803zm-60.227 17.486v-180.734h35.036l-10.751 163.696c-.636 9.681-3.015 15.3-4.357 17.038zm-33.98 0c-1.342-1.738-3.721-7.357-4.357-17.037l-1.879-28.608c-.271-4.133-3.829-7.278-7.976-6.992-4.133.271-7.264 3.842-6.992 7.975l1.879 28.608c.404 6.153 1.398 11.553 2.885 16.055h-10.83c-6.067 0-11.791-7.681-13.03-17.487l-20.644-163.247h30.803l6.966 106.071c.26 3.966 3.559 7.009 7.477 7.009.165 0 .332-.005.499-.017 4.133-.271 7.264-3.842 6.992-7.975l-6.902-105.089h34.088v180.734zm-70.314-17.854-28.858-162.88h23.109l20.882 165.129c.733 5.8 2.488 11.074 4.997 15.554-9.995-.535-18.365-7.844-20.13-17.803zm194.536 0c-1.765 9.958-10.135 17.268-20.129 17.803 2.509-4.479 4.263-9.753 4.997-15.553l20.882-165.13h23.109zm-224.286-206.243c1.732-11.685 7.468-22.537 16.322-30.558 10.725-9.715 25.14-14.474 39.536-13.044l167.457 16.578c15.269 1.512 27.322 12.613 30.47 27.023h-253.785zm224.793-41.951-141.992-14.057c12.721-9.986 20.917-25.486 20.917-42.875 0-.061-.004-.121-.005-.182l47.052-4.702c20.389-2.037 40.067 4.33 55.396 17.937 13.254 11.764 21.51 27.398 23.762 44.662-1.679-.343-3.388-.61-5.13-.783z"/></svg>