<svg id="Layer_1" data-name="Layer 1" xmlns="http://www.w3.org/2000/svg" xmlns:xlink="http://www.w3.org/1999/xlink" viewBox="0 0 1469.48 227.12"><defs><style>.cls-1{fill:#fff;}.cls-2{fill:#253b80;}.cls-3{fill:#0066b2;}.cls-4{fill:#36495d;}.cls-5{fill:#006fcf;}.cls-6{fill:#f9a533;}.cls-7{fill:#f16522;}.cls-8{fill:#e41b24;}.cls-9{fill:#f89e1c;}.cls-10{mask:url(#mask);}.cls-11{fill:#f7f7f7;}.cls-12{mask:url(#mask-2);}</style><mask id="mask" x="1146.97" y="53.84" width="322.3" height="131.98" maskUnits="userSpaceOnUse"><g transform="translate(-25.99 -15.05)"><g id="_Group_" data-name="&lt;Group&gt;"><g id="bluebox-55x54-b"><g id="_Group_2" data-name="&lt;Group&gt;"><polygon id="bluebox-55x54-a" class="cls-1" points="1172.96 68.89 1172.96 200.87 1495.26 200.87 1495.26 68.89 1172.96 68.89"/></g></g></g></g></mask><mask id="mask-2" x="1210.54" y="138.68" width="258.95" height="37.97" maskUnits="userSpaceOnUse"><g transform="translate(-25.99 -15.05)"><g id="_Group_3" data-name="&lt;Group&gt;"><g id="bluebox-55x54-d"><g id="_Group_4" data-name="&lt;Group&gt;"><polygon id="bluebox-55x54-c" class="cls-1" points="1495.48 191.7 1495.48 153.73 1236.53 153.73 1236.53 191.7 1495.48 191.7"/></g></g></g></g></mask></defs><title>Credit-Card-Icons</title><rect id="_Rectangle_" data-name="&lt;Rectangle&gt;" class="cls-2" width="322.52" height="227.12" rx="29.88" ry="29.88"/><rect id="_Rectangle_2" data-name="&lt;Rectangle&gt;" class="cls-3" x="382.32" width="322.52" height="227.12" rx="29.88" ry="29.88"/><rect id="_Rectangle_3" data-name="&lt;Rectangle&gt;" class="cls-4" x="764.64" width="322.52" height="227.12" rx="29.88" ry="29.88"/><rect id="_Rectangle_4" data-name="&lt;Rectangle&gt;" class="cls-5" x="1146.97" width="322.52" height="227.12" rx="29.88" ry="29.88"/><g id="_Group_5" data-name="&lt;Group&gt;"><path id="_Compound_Path_" data-name="&lt;Compound Path&gt;" class="cls-1" d="M103.44,115c-1,6.3-5.78,6.3-10.44,6.3H90.35l1.86-11.77a1.46,1.46,0,0,1,1.45-1.24h1.22c3.17,0,6.17,0,7.71,1.81C103.51,111.15,103.79,112.76,103.44,115Zm-2-16.46H83.84a2.44,2.44,0,0,0-2.41,2.06l-7.11,45.06a1.46,1.46,0,0,0,1.45,1.69h8.39a2.44,2.44,0,0,0,2.41-2.06l1.92-12.15A2.44,2.44,0,0,1,90.9,131h5.56c11.57,0,18.25-5.6,20-16.7.79-4.86,0-8.67-2.24-11.34C111.72,100.07,107.29,98.51,101.41,98.51Z" transform="translate(-25.99 -15.05)"/><path id="_Compound_Path_2" data-name="&lt;Compound Path&gt;" class="cls-1" d="M142.2,131.14a9.38,9.38,0,0,1-9.49,8,6.52,6.52,0,0,1-7-8.18,9.42,9.42,0,0,1,9.43-8.1,7.1,7.1,0,0,1,5.61,2.29A7.28,7.28,0,0,1,142.2,131.14Zm11.73-16.38h-8.41a1.47,1.47,0,0,0-1.45,1.24l-.37,2.35-.59-.85c-1.82-2.64-5.88-3.53-9.94-3.53-9.3,0-17.24,7-18.79,16.92a15.88,15.88,0,0,0,3.13,12.93c2.56,3,6.23,4.28,10.6,4.28a16.1,16.1,0,0,0,11.65-4.82l-.38,2.34a1.46,1.46,0,0,0,1.44,1.7h7.58a2.44,2.44,0,0,0,2.41-2.06l4.55-28.8A1.46,1.46,0,0,0,153.93,114.77Z" transform="translate(-25.99 -15.05)"/><path id="_Path_" data-name="&lt;Path&gt;" class="cls-1" d="M198.74,114.77h-8.46a2.45,2.45,0,0,0-2,1.07L176.61,133l-4.94-16.51a2.45,2.45,0,0,0-2.34-1.74H161a1.47,1.47,0,0,0-1.39,1.94L168.93,144l-8.76,12.36a1.46,1.46,0,0,0,1.19,2.31h8.44a2.44,2.44,0,0,0,2-1l28.12-40.59A1.46,1.46,0,0,0,198.74,114.77Z" transform="translate(-25.99 -15.05)"/><path id="_Compound_Path_3" data-name="&lt;Compound Path&gt;" class="cls-1" d="M228.77,115c-1,6.3-5.78,6.3-10.44,6.3h-2.65l1.86-11.77a1.46,1.46,0,0,1,1.44-1.24h1.22c3.17,0,6.17,0,7.71,1.81C228.84,111.15,229.12,112.76,228.77,115Zm-2-16.46H209.17a2.44,2.44,0,0,0-2.41,2.06l-7.11,45.06a1.46,1.46,0,0,0,1.44,1.69h9a1.71,1.71,0,0,0,1.69-1.44l2-12.77a2.44,2.44,0,0,1,2.41-2.06h5.56c11.58,0,18.25-5.6,20-16.7.79-4.86,0-8.67-2.24-11.34C237,100.07,232.62,98.51,226.74,98.51Z" transform="translate(-25.99 -15.05)"/><path id="_Compound_Path_4" data-name="&lt;Compound Path&gt;" class="cls-1" d="M267.53,131.14a9.37,9.37,0,0,1-9.49,8,6.52,6.52,0,0,1-7-8.18,9.42,9.42,0,0,1,9.43-8.1,7.1,7.1,0,0,1,5.61,2.29A7.25,7.25,0,0,1,267.53,131.14Zm11.73-16.38h-8.41a1.46,1.46,0,0,0-1.44,1.24l-.37,2.35-.59-.85c-1.82-2.64-5.88-3.53-9.94-3.53-9.3,0-17.24,7-18.78,16.92a15.89,15.89,0,0,0,3.13,12.93c2.57,3,6.23,4.28,10.6,4.28a16.1,16.1,0,0,0,11.65-4.82l-.38,2.34a1.46,1.46,0,0,0,1.45,1.7h7.58a2.44,2.44,0,0,0,2.41-2.06l4.55-28.8A1.47,1.47,0,0,0,279.26,114.77Z" transform="translate(-25.99 -15.05)"/><path id="_Path_2" data-name="&lt;Path&gt;" class="cls-1" d="M289.18,99.75,282,145.63a1.46,1.46,0,0,0,1.44,1.69h7.25a2.44,2.44,0,0,0,2.41-2.06l7.11-45.05a1.46,1.46,0,0,0-1.44-1.69h-8.12A1.47,1.47,0,0,0,289.18,99.75Z" transform="translate(-25.99 -15.05)"/></g><g id="_Group_6" data-name="&lt;Group&gt;"><g id="_Group_7" data-name="&lt;Group&gt;"><polygon id="_Path_3" data-name="&lt;Path&gt;" class="cls-1" points="529.89 149.14 513.09 149.14 523.59 84.61 540.39 84.61 529.89 149.14"/><path id="_Path_4" data-name="&lt;Path&gt;" class="cls-1" d="M525,99.67l-16,44.38L507,134.49h0l-5.65-29s-.68-5.81-8-5.81H466.95l-.31,1.09a62.74,62.74,0,0,1,17.57,7.38l14.59,56.05h17.5L543,99.67Z" transform="translate(-25.99 -15.05)"/><path id="_Compound_Path_5" data-name="&lt;Compound Path&gt;" class="cls-1" d="M657.08,164.19h15.42L659.06,99.67H645.55c-6.24,0-7.75,4.81-7.75,4.81l-25.05,59.71h17.51l3.5-9.58h21.35ZM638.6,141.37l8.83-24.15,5,24.15Z" transform="translate(-25.99 -15.05)"/><path id="_Path_5" data-name="&lt;Path&gt;" class="cls-1" d="M614.06,115.18l2.4-13.86a48.49,48.49,0,0,0-15.11-2.81c-8.34,0-28.13,3.65-28.13,21.36,0,16.67,23.23,16.88,23.23,25.63s-20.84,7.19-27.72,1.67l-2.5,14.48s7.5,3.65,19,3.65S614,159.36,614,143.21c0-16.78-23.44-18.34-23.44-25.63S606.87,111.22,614.06,115.18Z" transform="translate(-25.99 -15.05)"/></g><path id="_Path_6" data-name="&lt;Path&gt;" class="cls-6" d="M507,134.49l-5.65-29s-.68-5.81-8-5.81H466.95l-.31,1.09a65.11,65.11,0,0,1,24.93,12.52A50.32,50.32,0,0,1,507,134.49Z" transform="translate(-25.99 -15.05)"/></g><g id="_Group_8" data-name="&lt;Group&gt;"><rect id="_Path_7" data-name="&lt;Path&gt;" class="cls-7" x="898.81" y="64.87" width="54.18" height="97.37"/><path id="_Path_8" data-name="&lt;Path&gt;" class="cls-8" d="M928.24,128.61a61.82,61.82,0,0,1,23.65-48.68,61.93,61.93,0,1,0,0,97.37,61.82,61.82,0,0,1-23.65-48.68" transform="translate(-25.99 -15.05)"/><path id="_Compound_Path_6" data-name="&lt;Compound Path&gt;" class="cls-9" d="M1052.08,128.61A61.92,61.92,0,0,1,951.9,177.29a61.94,61.94,0,0,0,0-97.37,61.92,61.92,0,0,1,100.19,48.68M1046.18,167v-2h.8v-.4h-2v.4h.8v2Zm4,0v-2.4h-.63l-.72,1.65-.72-1.65h-.63V167h.44v-1.81l.68,1.57h.46l.68-1.57V167Z" transform="translate(-25.99 -15.05)"/></g><g id="_Group_9" data-name="&lt;Group&gt;"><g id="_Group_10" data-name="&lt;Group&gt;"><g class="cls-10"><path id="_Compound_Path_7" data-name="&lt;Compound Path&gt;" class="cls-11" d="M1455.77,125.19H1480V68.89h-25.82v9l-5.75-9h-22.51V80.28l-5-11.39h-37.21a33.89,33.89,0,0,0-5.22.4,29.24,29.24,0,0,0-4.19,1,26.17,26.17,0,0,0-3.08,1.18,24.25,24.25,0,0,0-3.34,1.86v-4.4H1246.35L1243,78.71l-3.37-9.82h-28.26V80.4l-5.1-11.51h-23.05L1173,93v32.22h16.33l3-8.08h5.75l3.09,8.08h125.62V117l6.29,8.19h34.71V121.1a23.15,23.15,0,0,0,2.77,1.53,25.59,25.59,0,0,0,2.9,1.13,27.93,27.93,0,0,0,3.67.92,33.17,33.17,0,0,0,5.89.52h20.77l3-8.08h5.75l3.09,8.08h34.82v-8.35Zm39.48,72.2V144.57H1295.32l-5.1,7.21-5-7.21h-57.5v56.3H1285l5-7.32,5.15,7.32H1331V188.72h-.38a34.59,34.59,0,0,0,12.1-2.14v14.29h25v-8.19l6.29,8.19h108.48a25.42,25.42,0,0,0,8.67-1.48A22.47,22.47,0,0,0,1495.26,197.4Z" transform="translate(-25.99 -15.05)"/></g><g id="_Group_11" data-name="&lt;Group&gt;"><g class="cls-12"><path id="_Compound_Path_8" data-name="&lt;Compound Path&gt;" class="cls-5" d="M1482.68,184.11H1463.2v7.6h19.2c8.2,0,13.08-5,13.08-12.1,0-6.78-4.39-10.74-11.77-10.74h-8.79a3.46,3.46,0,0,1-3.69-3.64,3.56,3.56,0,0,1,3.69-3.8h16.49l3.37-7.7h-19.58c-8.19,0-13.07,5-13.07,11.82,0,7,4.61,11,11.83,11h8.73a3.51,3.51,0,0,1,3.74,3.69A3.62,3.62,0,0,1,1482.68,184.11Zm-36.13,0h-19.47v7.6h19.2c8.19,0,13.08-5,13.08-12.1,0-6.78-4.39-10.74-11.77-10.74h-8.79a3.46,3.46,0,0,1-3.69-3.64,3.56,3.56,0,0,1,3.69-3.8h16.49l3.37-7.7h-19.58c-8.19,0-13.07,5-13.07,11.82,0,7,4.61,11,11.83,11h8.73a3.51,3.51,0,0,1,3.74,3.69A3.62,3.62,0,0,1,1446.55,184.11Zm-25-22.67v-7.7h-30.38v38h30.38v-7.65h-21.26v-7.65h20.77v-7.6h-20.77v-7.38Zm-50.88.05c3.25,0,5,2.11,5,4.72s-1.74,4.66-5,4.66H1360v-9.38ZM1360,178h4.29l11.34,13.67h11.34l-12.64-14c6.46-1.2,10.3-5.86,10.3-11.93,0-7.11-5-12-13.13-12h-20.61v38H1360Zm-23.22-11.56a4.45,4.45,0,0,1-4.83,4.67H1321v-9.33h10.9C1335.14,161.82,1336.77,163.88,1336.77,166.48Zm-24.84-12.74v38H1321V179.17h11.44c8.3,0,13.45-5.42,13.45-12.74,0-7.54-5-12.69-13.13-12.69Zm-13.4,38h11.39l-15.24-19.15,15.13-18.82h-11.06l-9.33,12-9.27-12h-11.39l15.19,19-15.13,19h11.07l9.33-12.21Zm-31.62-30.27v-7.7h-30.38v38h30.38v-7.65h-21.26v-7.65h20.77v-7.6h-20.77v-7.38Z" transform="translate(-25.99 -15.05)"/></g></g><path id="_Compound_Path_9" data-name="&lt;Compound Path&gt;" class="cls-5" d="M1443.13,93.3l-.11-3.15,1.9,3.15L1459.46,116h10.64v-38h-8.9v22l.11,2.82-1.68-2.82-14.22-22h-11.17v38h8.89Zm-36.34-1.08,2.77-7.11,2.76,7.11,3.37,8.41h-12.21ZM1421.87,116h10.25l-16.21-38h-12l-16.27,38h9.71l3.2-8.14h18.06Zm-39.76,0h.49l3.74-8.08h-2.77c-6.24,0-9.93-3.9-9.93-10.63v-.54c0-6,3.31-10.52,9.82-10.52h9.87V78.06h-10.63c-11.72,0-18.12,7.87-18.12,18.66v.65C1364.59,108.65,1371.16,116,1382.11,116Zm-32.38,0h9.11v-38h-9.11v38Zm-19.15-30.21c3.25,0,5,2.11,5,4.72s-1.74,4.66-5,4.66H1319.9V85.82Zm-10.69,16.54h4.29L1335.52,116h11.34l-12.64-14c6.46-1.19,10.31-5.86,10.31-11.93,0-7.11-5-12-13.13-12h-20.61v38h9.11Zm-15.78-16.6v-7.7h-30.38v38h30.38v-7.76h-21.26v-7.54h20.77V93.14h-20.77V85.76Zm-75.56,4.34-.22-10.25L1238.86,116h8.25l10.52-36-.22,10v26h8.84v-38H1250.2L1243,105l-7.27-26.9h-16v38h8.84Zm-36.29,2.11,2.77-7.11,2.77,7.11,3.36,8.41H1189ZM1207.35,116h10.25l-16.22-38h-12l-16.27,38h9.71l3.2-8.14h18.06Z" transform="translate(-25.99 -15.05)"/></g></g></svg>