<svg xmlns="http://www.w3.org/2000/svg" xmlns:xlink="http://www.w3.org/1999/xlink" viewBox="0 0 753.55 310.94"><defs><style>.cls-1{isolation:isolate;}.cls-2{fill:url(#linear-gradient);}.cls-3{fill:url(#Degradado_sin_nombre_26);}.cls-4{fill:url(#linear-gradient-2);}.cls-5{fill:url(#linear-gradient-3);}.cls-6{fill:url(#linear-gradient-4);}.cls-7{fill:url(#linear-gradient-5);}.cls-8{fill:url(#linear-gradient-6);}.cls-9{fill:url(#linear-gradient-7);}.cls-10{fill:url(#linear-gradient-8);}.cls-11{fill:url(#linear-gradient-9);}.cls-12{fill:#0046bf;}.cls-13{fill:#69a0e2;}.cls-14{fill:#3c3d3d;}.cls-15{fill:#fff;}.cls-16{opacity:0.1;mix-blend-mode:hard-light;}.cls-17{fill:#fc505c;}.cls-18{fill:#f93800;}.cls-19{fill:none;}.cls-20{fill:#c8e4fc;}.cls-21{fill:#599fe1;}.cls-22{fill:#cbe4fb;}.cls-23{fill:#398cdb;}.cls-24{fill:#5393c9;}.cls-25{fill:#5eabea;}.cls-26{fill:#5093c9;}.cls-27{fill:#ff9500;}.cls-28{fill:#579ac9;}.cls-29{fill:#bdd2e0;}.cls-30{fill:#d1d1d1;}.cls-31{fill:#317cba;}</style><linearGradient id="linear-gradient" x1="424.84" y1="411.25" x2="381.74" y2="411.25" gradientTransform="matrix(-1, 0, 0, 1, 635.83, 0)" gradientUnits="userSpaceOnUse"><stop offset="0" stop-color="#69a0e2"/><stop offset="0.1" stop-color="#5c95de"/><stop offset="0.51" stop-color="#2a6acd"/><stop offset="0.82" stop-color="#0c50c3"/><stop offset="1" stop-color="#0046bf"/></linearGradient><linearGradient id="Degradado_sin_nombre_26" x1="581.88" y1="265.14" x2="103.95" y2="580.32" gradientTransform="matrix(-1, 0, 0, 1, 635.83, 0)" gradientUnits="userSpaceOnUse"><stop offset="0" stop-color="#ffb50f"/><stop offset="1" stop-color="#ff31b0"/></linearGradient><linearGradient id="linear-gradient-2" x1="423.69" y1="435.68" x2="382.96" y2="435.68" gradientTransform="matrix(-1, 0, 0, 1, 635.83, 0)" gradientUnits="userSpaceOnUse"><stop offset="0" stop-color="#ffaaaf"/><stop offset="0.06" stop-color="#ffa1a1"/><stop offset="0.39" stop-color="#fc745d"/><stop offset="0.67" stop-color="#fa542b"/><stop offset="0.88" stop-color="#f9400c"/><stop offset="1" stop-color="#f93800"/></linearGradient><linearGradient id="linear-gradient-3" x1="422.79" y1="460.11" x2="381.48" y2="460.11" xlink:href="#linear-gradient"/><linearGradient id="linear-gradient-4" x1="485.54" y1="460.11" x2="433.67" y2="460.11" xlink:href="#linear-gradient"/><linearGradient id="linear-gradient-5" x1="459.5" y1="484.55" x2="395.74" y2="484.55" xlink:href="#linear-gradient-2"/><linearGradient id="linear-gradient-6" x1="433.05" y1="508.97" x2="394.38" y2="508.97" xlink:href="#linear-gradient"/><linearGradient id="linear-gradient-7" x1="446.38" y1="537.5" x2="407.71" y2="537.5" xlink:href="#linear-gradient-2"/><linearGradient id="linear-gradient-8" x1="463.41" y1="557.84" x2="409.72" y2="557.84" xlink:href="#linear-gradient"/><linearGradient id="linear-gradient-9" x1="465.5" y1="582.28" x2="421.92" y2="582.28" xlink:href="#linear-gradient-2"/></defs><title>TamilanExpressLogo</title><g class="cls-1"><g id="Layer_3" data-name="Layer 3"><path class="cls-2" d="M248.3,417H216.79a5.79,5.79,0,1,1,0-11.59H248.3a5.79,5.79,0,1,1,0,11.59Z" transform="translate(-150.3 -378.68)"/><path class="cls-3" d="M282.21,417H268.8a5.79,5.79,0,1,1,0-11.59h13.41a5.79,5.79,0,1,1,0,11.59Z" transform="translate(-150.3 -378.68)"/><path class="cls-4" d="M217.93,429.87h0l29.14,0a5.79,5.79,0,0,1,0,11.59h0l-29.15,0a5.79,5.79,0,0,1,0-11.59Z" transform="translate(-150.3 -378.68)"/><path class="cls-5" d="M248.57,465.87q-14.86.05-29.73.07h0a5.79,5.79,0,0,1,0-11.59q14.85,0,29.7-.07h0a5.79,5.79,0,0,1,0,11.59Z" transform="translate(-150.3 -378.68)"/><path class="cls-6" d="M196.37,465.95h0q-20.15,0-40.3-.08a5.79,5.79,0,0,1,0-11.59h0q20.13.07,40.26.08a5.79,5.79,0,0,1,0,11.59Z" transform="translate(-150.3 -378.68)"/><path class="cls-7" d="M182.11,490.39a5.79,5.79,0,0,1,0-11.59h0c17.44,0,35,0,52.12-.11a5.79,5.79,0,0,1,.07,11.59c-13,.08-26.22.12-39.46.12Z" transform="translate(-150.3 -378.68)"/><path class="cls-8" d="M208.63,503.1c9,.08,18.13.13,27,.15a5.79,5.79,0,0,1,0,11.59h0c-8.94,0-18.06-.07-27.12-.15a5.79,5.79,0,0,1,.05-11.59Z" transform="translate(-150.3 -378.68)"/><path class="cls-9" d="M195.3,531.62c9,.08,18.13.13,27,.15a5.79,5.79,0,0,1,0,11.59h0c-8.94,0-18.06-.07-27.12-.15a5.79,5.79,0,0,1,.05-11.59Z" transform="translate(-150.3 -378.68)"/><path class="cls-10" d="M226.11,557.64a5.79,5.79,0,0,1-5.71,5.88c-11.15.16-22.39.24-33.54.24l-8.67,0a5.79,5.79,0,0,1,0-11.59h0c13.88.06,28,0,42-.23A5.76,5.76,0,0,1,226.11,557.64Z" transform="translate(-150.3 -378.68)"/><path class="cls-11" d="M208.11,588.21h0c-10.61,0-21.4-.11-32.07-.28a5.79,5.79,0,0,1,.19-11.59c10.61.17,21.34.27,31.9.28a5.79,5.79,0,0,1,0,11.59Z" transform="translate(-150.3 -378.68)"/><path class="cls-12" d="M226.23,390.64c1.83-10.83,18.51-15.72,18.19-8.65l76.48.45c5.3,0,9.59,4.8,9.6,10.65l.16,201.15c0,6.06-4.37,11-9.76,11.07l-78.07.67a6.25,6.25,0,0,1-2.82,2.72c-9,.19-13.25-4.23-14.82-9.23a12,12,0,0,1-.78-4.39C224.72,592.45,225.67,393.18,226.23,390.64Z" transform="translate(-150.3 -378.68)"/><path class="cls-13" d="M240.83,608.71l89.62-.58c5.59,0,10.12-5.13,10.11-11.37l-.34-206.86c0-6-4.46-10.9-9.95-10.92l-87.88-.29c-5.53,0-10,4.86-10.09,10.91l-1.59,207.82C230.66,603.69,235.19,608.75,240.83,608.71Z" transform="translate(-150.3 -378.68)"/><path class="cls-14" d="M239.59,607.21a8.09,8.09,0,0,0,1.13.07l89.59-.68c4.81,0,8.73-4.5,8.73-9.95L338.73,390c0-5.25-3.87-9.54-8.59-9.56l-87.87-.38h-.41a8.31,8.31,0,0,0-5.82,2.83,9.93,9.93,0,0,0-2.48,6.58l-1.57,208C232,602.46,235.21,606.62,239.59,607.21Z" transform="translate(-150.3 -378.68)"/><polygon class="cls-15" points="86.35 11.88 84.84 219.18 185.77 218.57 185.51 11.88 86.35 11.88"/><path class="cls-13" d="M265.87,390.55l23.93,32.5s0,0,0,0c-.24,6.38,13.41,6.4,13.83,0a.41.41,0,0,0,0,0L280,390.55Z" transform="translate(-150.3 -378.68)"/><path class="cls-12" d="M280,390.55l23.6,32.52a.4.4,0,0,0,0,0c-.3,6.38,13.34,6.39,13.82,0v0l-23.28-32.53Z" transform="translate(-150.3 -378.68)"/><path class="cls-12" d="M251.7,390.55,276,423v0s0,0,0,.07c-.21,5.94,13.48,6.66,13.84-.06a.4.4,0,0,0,0,0l-23.93-32.5Z" transform="translate(-150.3 -378.68)"/><path class="cls-13" d="M236.56,390.55,261.69,423v0c-.16,8.28,13.87,7.3,14.27.09,0,0,0,0,0-.07v0L251.7,390.55Z" transform="translate(-150.3 -378.68)"/><path class="cls-13" d="M336.63,390.55H322.49l22.61,32.56s0,0,0,0c-.5,6.38,13.61,6.39,14.3,0v0Z" transform="translate(-150.3 -378.68)"/><path class="cls-13" d="M294.19,390.55l23.28,32.53s0,0,0,0c-.37,6.38,13.27,6.39,13.82,0v0l-22.94-32.55Z" transform="translate(-150.3 -378.68)"/><path class="cls-12" d="M308.34,390.55l22.94,32.55a.4.4,0,0,0,0,0c-.43,6.38,13.2,6.39,13.82,0v0l-22.61-32.56Z" transform="translate(-150.3 -378.68)"/><path class="cls-16" d="M289.8,423.1c-.36,6.72-14.05,6-13.84.06-.4,7.21-14.43,8.19-14.27-.09Z" transform="translate(-150.3 -378.68)"/><path class="cls-16" d="M289.8,423.1h13.83C303.21,429.49,289.56,429.48,289.8,423.1Z" transform="translate(-150.3 -378.68)"/><path class="cls-16" d="M303.63,423.11h13.82C317,429.5,303.33,429.49,303.63,423.11Z" transform="translate(-150.3 -378.68)"/><path class="cls-16" d="M317.46,423.12h13.82C330.73,429.52,317.09,429.5,317.46,423.12Z" transform="translate(-150.3 -378.68)"/><path class="cls-16" d="M331.28,423.14H345.1C344.48,429.53,330.85,429.52,331.28,423.14Z" transform="translate(-150.3 -378.68)"/><path class="cls-16" d="M359.4,423.17c-.68,6.38-14.79,6.36-14.3,0Z" transform="translate(-150.3 -378.68)"/><line class="cls-17" x1="180.73" y1="203.16" x2="180.73" y2="206.55"/><line class="cls-17" x1="180.73" y1="170.01" x2="180.73" y2="173.41"/><line class="cls-17" x1="180.73" y1="136.87" x2="180.73" y2="140.26"/><line class="cls-17" x1="180.73" y1="103.72" x2="180.73" y2="107.12"/><path class="cls-18" d="M323.16,446.29,251,445.87a4.8,4.8,0,0,1-4.71-4.83,4.73,4.73,0,0,1,4.71-4.77l72.17.47a4.76,4.76,0,0,1,4.66,4.8A4.69,4.69,0,0,1,323.16,446.29ZM251,436.58a4.41,4.41,0,0,0-4.4,4.46,4.48,4.48,0,0,0,4.4,4.51l72.17.42a4.38,4.38,0,0,0,4.35-4.43,4.44,4.44,0,0,0-4.35-4.49Z" transform="translate(-150.3 -378.68)"/><path class="cls-18" d="M323.16,436.9l-7.51,0v9.24l7.51,0a4.53,4.53,0,0,0,4.5-4.59A4.6,4.6,0,0,0,323.16,436.9Z" transform="translate(-150.3 -378.68)"/><path class="cls-15" d="M320.38,442.84a2.31,2.31,0,0,1-1.65-.71,2.44,2.44,0,0,1,0-3.38,2.28,2.28,0,0,1,1.65-.69,2.31,2.31,0,0,1,1.65.71h0a2.44,2.44,0,0,1,0,3.38A2.28,2.28,0,0,1,320.38,442.84Zm0-4.21a1.73,1.73,0,0,0-1.25.52,1.85,1.85,0,0,0,0,2.57,1.75,1.75,0,0,0,1.25.54,1.73,1.73,0,0,0,1.25-.52,1.85,1.85,0,0,0,0-2.57A1.75,1.75,0,0,0,320.38,438.63Z" transform="translate(-150.3 -378.68)"/><polygon class="cls-15" points="173.11 65.31 171.34 63.47 171.74 63.06 173.5 64.9 173.11 65.31"/><path class="cls-15" d="M324.19,444.39h0a.5.5,0,0,1-.72,0L322,442.86l.72-.73,1.48,1.53A.53.53,0,0,1,324.19,444.39Z" transform="translate(-150.3 -378.68)"/><path class="cls-19" d="M213,510.21a7.75,7.75,0,0,1,1.16-4" transform="translate(-150.3 -378.68)"/><path class="cls-19" d="M197.78,525.1c5.07,1.84,10.21,3.57,15.21,5.19" transform="translate(-150.3 -378.68)"/><path class="cls-19" d="M401.39,546.06a2.26,2.26,0,0,0-1.63-.7H374a2.25,2.25,0,0,0-2.25,2.25v25.87a2.25,2.25,0,0,0,2.25,2.25h50.43a2.25,2.25,0,0,0,1.63-3.8Z" transform="translate(-150.3 -378.68)"/><path class="cls-19" d="M465.67,593.39a7.73,7.73,0,0,0-2.25-5.43l-55-55A7.63,7.63,0,0,0,403,530.7H363.05a7.69,7.69,0,0,0-7.68,7.68V604.7a11.88,11.88,0,0,1-11.87,11.87H222.77a7.69,7.69,0,0,0-7.68,7.68v1.22H465.67ZM430.37,576a6.35,6.35,0,0,1-5.92,3.9H374a6.44,6.44,0,0,1-6.44-6.44V547.61a6.44,6.44,0,0,1,6.44-6.44h25.74a6.48,6.48,0,0,1,4.65,2L429.11,569A6.35,6.35,0,0,1,430.37,576Z" transform="translate(-150.3 -378.68)"/><path class="cls-19" d="M213,535.84c-5.51-1.76-11.21-3.67-16.82-5.7" transform="translate(-150.3 -378.68)"/><path class="cls-18" d="M467.76,629.66H213a2.09,2.09,0,0,1-2.09-2.09v14.83a11.88,11.88,0,0,0,11.87,11.87h34.81A2.09,2.09,0,0,0,259.5,653a30,30,0,0,1,55.24,0,2.1,2.1,0,0,0,1.93,1.27H365A2.09,2.09,0,0,0,367,653a30,30,0,0,1,55.24,0,2.09,2.09,0,0,0,1.93,1.27H458a11.88,11.88,0,0,0,11.87-11.87V627.56A2.09,2.09,0,0,1,467.76,629.66Z" transform="translate(-150.3 -378.68)"/><path class="cls-14" d="M287.12,639.86A24.92,24.92,0,1,0,305,647.48,24.78,24.78,0,0,0,287.12,639.86Zm0,37.45a12.56,12.56,0,1,1,12.57-12.57A12.57,12.57,0,0,1,287.12,677.31Z" transform="translate(-150.3 -378.68)"/><path class="cls-14" d="M394.57,639.86a24.92,24.92,0,1,0,17.89,7.62A24.78,24.78,0,0,0,394.57,639.86Zm0,37.45a12.56,12.56,0,1,1,12.57-12.57A12.57,12.57,0,0,1,394.57,677.31Z" transform="translate(-150.3 -378.68)"/><path class="cls-12" d="M466.38,585l-55-55a11.79,11.79,0,0,0-8.39-3.48H363.05a11.88,11.88,0,0,0-11.87,11.87V604.7a7.69,7.69,0,0,1-7.68,7.68H222.77a11.88,11.88,0,0,0-11.87,11.87v3.32a2.09,2.09,0,0,0,2.09,2.09H467.76a2.09,2.09,0,0,0,2.09-2.09V593.39A12,12,0,0,0,466.38,585Z" transform="translate(-150.3 -378.68)"/><path class="cls-13" d="M404.42,543.16a6.48,6.48,0,0,0-4.65-2H374a6.44,6.44,0,0,0-6.44,6.44v25.87a6.44,6.44,0,0,0,6.44,6.44h50.43A6.44,6.44,0,0,0,429.11,569Z" transform="translate(-150.3 -378.68)"/><polygon class="cls-18" points="180.15 204.22 92.1 204.22 92.1 200.81 180.15 200.82 180.15 204.22"/><polygon class="cls-18" points="180.15 171.07 92.1 170.94 92.1 167.54 180.15 167.68 180.15 171.07"/><polygon class="cls-18" points="180.15 137.93 92.1 137.67 92.1 134.26 180.15 134.53 180.15 137.93"/><polygon class="cls-18" points="180.15 104.78 92.1 104.39 92.1 100.98 180.15 101.39 180.15 104.78"/><polyline class="cls-20" points="120.1 73.01 120.1 98.2 95.4 98.09 95.4 72.86"/><polyline class="cls-20" points="148.84 73.18 148.84 98.34 124.21 98.22 124.21 73.03"/><polyline class="cls-20" points="176.87 73.34 176.87 98.47 152.3 98.36 152.3 73.2"/><polygon class="cls-20" points="120.1 132.03 95.4 131.95 95.4 106.73 120.1 106.83 120.1 132.03"/><polygon class="cls-20" points="148.84 132.12 124.21 132.04 124.21 106.85 148.84 106.96 148.84 132.12"/><polygon class="cls-20" points="176.87 132.21 152.3 132.13 152.3 106.97 176.87 107.08 176.87 132.21"/><polygon class="cls-20" points="120.1 165.26 95.4 165.22 95.4 140 120.1 140.07 120.1 165.26"/><polygon class="cls-20" points="148.84 165.31 124.21 165.27 124.21 140.08 148.84 140.15 148.84 165.31"/><polygon class="cls-20" points="176.87 165.36 152.3 165.32 152.3 140.16 176.87 140.23 176.87 165.36"/><polygon class="cls-20" points="120.1 198.5 95.4 198.49 95.4 173.27 120.1 173.3 120.1 198.5"/><polygon class="cls-20" points="148.84 198.51 124.21 198.5 124.21 173.31 148.84 173.34 148.84 198.51"/><polygon class="cls-20" points="176.87 198.51 152.3 198.51 152.3 173.35 176.87 173.38 176.87 198.51"/><path class="cls-19" d="M213.57,503.83c-14.52-3.92-29-7.56-39.86-10.18.28,6.81,3.3,21.81,23.49,29.12,5.07,1.84,10.21,3.57,15.21,5.19V507.88A7.75,7.75,0,0,1,213.57,503.83Z" transform="translate(-150.3 -378.68)"/><path class="cls-19" d="M210.67,550.18a1.07,1.07,0,0,1-.27,0c-.09,0-8.53.39-14.78,3.95,1.2,2.74,5.06,8.8,16.79,13.79v-17.2C211.84,550.57,211.24,550.38,210.67,550.18Z" transform="translate(-150.3 -378.68)"/><path class="cls-19" d="M195.59,527.8c-.66-.1-7.07-1.11-12.32.25,6.31,7.26,17.32,12.84,29.15,17V533.5C206.9,531.74,201.21,529.83,195.59,527.8Z" transform="translate(-150.3 -378.68)"/><path class="cls-21" d="M324.27,462.48c.7,2.87-3.22,5.05-8.4,6.31s-9.62,1.28-10.36-1.76,3.22-5.05,8.4-6.31S323.55,459.52,324.27,462.48Z" transform="translate(-150.3 -378.68)"/><path class="cls-22" d="M310.37,466.48a16.21,16.21,0,0,0-1-4.28q-.61.27-1.15.57A12,12,0,0,1,310.37,466.48Z" transform="translate(-150.3 -378.68)"/><path class="cls-22" d="M312.67,461q-.75.21-1.45.44a14.29,14.29,0,0,1,2.15,4.6A18.94,18.94,0,0,0,312.67,461Z" transform="translate(-150.3 -378.68)"/><path class="cls-22" d="M316.58,465.44a19.53,19.53,0,0,0-.36-5.19c-.5.08-1,.18-1.53.3A15,15,0,0,1,316.58,465.44Z" transform="translate(-150.3 -378.68)"/><path class="cls-22" d="M319.71,459.95q-.57,0-1.18,0a16.62,16.62,0,0,1,1,4.14A16.82,16.82,0,0,0,319.71,459.95Z" transform="translate(-150.3 -378.68)"/><path class="cls-23" d="M308.55,462.61l-.32.17a12,12,0,0,1,2.13,3.71,8.75,8.75,0,0,0-.11-1A10.52,10.52,0,0,0,308.55,462.61Z" transform="translate(-150.3 -378.68)"/><path class="cls-23" d="M311.57,461.38l-.34.11a14.29,14.29,0,0,1,2.15,4.6c0-.31,0-.63,0-1A13.2,13.2,0,0,0,311.57,461.38Z" transform="translate(-150.3 -378.68)"/><path class="cls-23" d="M315,460.47l-.35.07a15,15,0,0,1,1.88,4.9c0-.29.05-.59.06-.9A14.2,14.2,0,0,0,315,460.47Z" transform="translate(-150.3 -378.68)"/><path class="cls-23" d="M318.83,460h-.31a16.62,16.62,0,0,1,1,4.14c.06-.25.1-.52.13-.8A16.27,16.27,0,0,0,318.83,460Z" transform="translate(-150.3 -378.68)"/><path class="cls-23" d="M322.58,463.13c-.55,1.8-3.06,3.48-6.92,4.46-3.13.79-6.65,1.5-8.8,1.27,1.84,1.11,5.22.84,9-.07,5.18-1.26,9.1-3.44,8.4-6.31a3.26,3.26,0,0,0-2.78-2.34A3.31,3.31,0,0,1,322.58,463.13Z" transform="translate(-150.3 -378.68)"/><path class="cls-21" d="M293.24,494.33a5.53,5.53,0,0,0-3.71,0,9.78,9.78,0,0,0-1.76.64,3.77,3.77,0,0,0-1.24.1c-.77.21-.31.24-.67.38s0,.19-.47.43-.36.48-.64.64-.27.51-.47.61-.16.34-.28.39-.24.39-.31.45,0,0,.17,0a10.16,10.16,0,0,0-.64.86c-1,1.52-1,1.9-1.57,2.23-.83.5-3-.48-3.81-.27-.45.12-.56.34-.49.62a11,11,0,0,0,2.13.25,7.81,7.81,0,0,0,2-.13l.21-.07a1.09,1.09,0,0,1-.21.07,7.48,7.48,0,0,1-4,.17,5.64,5.64,0,0,0,1,1.1,14,14,0,0,0,2.14-.66,11.47,11.47,0,0,1-2,.81,4.27,4.27,0,0,1,.46.41.59.59,0,0,1,.07.39c.44-.29,1.05-.72,1.48-1.07.64-.54-.59.68-1.52,1.32a10.4,10.4,0,0,1-.37,1.12,7.63,7.63,0,0,0,1.62-1.41c.62-.81-.31.82-1.74,1.77-.1.4,0,.57.58.17,1.15-.75,2.19-3.53,3.73-3.57A13.08,13.08,0,0,0,287.7,501a.22.22,0,0,1-.09.17c-.25.24,0,.19-.18.34a.34.34,0,0,0-.15.36s.23.08,1.47-.84a4,4,0,0,0,1-1.09,12.59,12.59,0,0,0,2.75-2.24C294.39,495.54,294.51,494.78,293.24,494.33ZM283,501.52c-1,.21-.57-.7-.46-.9C282.52,500.62,282.21,501.5,283,501.52Zm.39-.8s-.19.92.58.83C283,501.89,283.29,500.93,283.38,500.71Zm.07-.37c-1,.21-.57-.7-.46-.9C283,499.45,282.68,500.33,283.45,500.35Zm.4-2.11s-.31.88.46.9C283.32,499.35,283.73,498.44,283.85,498.24Zm.38,1.3s-.31.88.46.9C283.7,500.65,284.11,499.73,284.23,499.53Zm.88,1.07s-.19.92.58.83C284.73,501.78,285,500.82,285.1,500.61Zm.09-2.8s-.31.88.46.9C284.66,498.92,285.08,498,285.19,497.81Zm.87,1.66s-.19.92.58.83C285.69,500.65,286,499.69,286.06,499.47Zm.76-1.31s-.31.88.46.9C286.3,499.27,286.71,498.36,286.82,498.16Zm.85,1.38s-.19.92.58.83C287.3,500.72,287.59,499.76,287.67,499.54Zm-1-2.12c-1,.21-.57-.7-.46-.9C286.25,496.53,285.94,497.41,286.71,497.43Zm.87-1s-.31.88.46.9C287.06,497.57,287.48,496.65,287.59,496.45Zm.87,1.66s-.19.92.58.83C288.08,499.29,288.37,498.33,288.46,498.12Zm1-.65c-1,.17-.54-.72-.42-.92C289.08,496.55,288.73,497.42,289.5,497.47Zm.73.21s-.19.92.58.83C289.86,498.85,290.15,497.89,290.23,497.68Zm-1-1.71c-1,.17-.54-.72-.42-.92C288.84,495.05,288.49,495.92,289.26,496Z" transform="translate(-150.3 -378.68)"/><path class="cls-21" d="M280.45,503.7c.62-.81-.31.82-1.74,1.77-.1.4,0,.57.58.17,1.15-.75,2.19-3.53,3.73-3.57A13.08,13.08,0,0,0,287.7,501a.22.22,0,0,1-.09.17c-.25.24,0,.19-.18.34a.34.34,0,0,0-.15.36s.23.08,1.47-.84a4,4,0,0,0,1-1.09,12.59,12.59,0,0,0,2.75-2.24c1.9-2.12,2-2.87.75-3.33a4.77,4.77,0,0,0-.83-.24c.36.28.81.74.65,1.25a6,6,0,0,1-1.84,2.21c-.25.22-.57.47-.93.74a.46.46,0,0,0,.52.22c-.42.15-.59.05-.66-.12a21.41,21.41,0,0,1-2.49,1.55.47.47,0,0,0,.59.44c-.6.22-.71-.09-.68-.39a8.05,8.05,0,0,1-1.94.76l-.55.11c0,.26.09.65.6.59-.72.26-.73-.23-.65-.58-.55.12-1.1.26-1.61.42a.46.46,0,0,0,.54.26c-.48.17-.64,0-.68-.21l-.46.17.16,0a1.18,1.18,0,0,1-.29,0,3.18,3.18,0,0,0-1.23.83,9.1,9.1,0,0,1-2.36,1.93c-.08.27-.19.55-.28.79A7.63,7.63,0,0,0,280.45,503.7Z" transform="translate(-150.3 -378.68)"/><circle class="cls-15" cx="291.42" cy="495.13" r="0.35" transform="translate(-357.6 -168.77) rotate(-29.75)"/><circle class="cls-23" cx="291.49" cy="495.1" r="0.22" transform="translate(-357.42 -169.02) rotate(-29.72)"/><path class="cls-23" d="M294.05,495a13.9,13.9,0,0,1-1.92,1.38c-.76.39.82-.32,1.22-.57s.71-.47.71-.47A.76.76,0,0,0,294.05,495Z" transform="translate(-150.3 -378.68)"/><path class="cls-23" d="M289.79,494.24a4.15,4.15,0,0,0,.67,2.19,5.31,5.31,0,0,0,1.47,1.8l-.1.09s-.61-.13-1.54-1.8-.65-2.25-.65-2.25Z" transform="translate(-150.3 -378.68)"/><path class="cls-22" d="M255.93,531.87a28.55,28.55,0,0,1-4,2.58c-1,.34-1.86.23-1.62.94a1.38,1.38,0,0,0,1,1s.18,1.14.73,1.22.73-.47,1.31-1.39,3.57-2.78,3.88-3S256.45,531.5,255.93,531.87Z" transform="translate(-150.3 -378.68)"/><path class="cls-21" d="M254.89,532.63l-.54.37a3.87,3.87,0,0,0,.41.95c.23.29-.2.37-.64.69a9.77,9.77,0,0,0-1.31,1.11.85.85,0,0,1-.85.23c-.23,0-.43.12-.82,0a3.81,3.81,0,0,1-.85-.55,1.38,1.38,0,0,0,1,.91v0l.09,0c.28-.07.55.59.43.65a1.26,1.26,0,0,0-.25.18.68.68,0,0,0,.46.39c.48.07.73-.47,1.31-1.39a15.36,15.36,0,0,1,3.16-2.54A2.69,2.69,0,0,0,254.89,532.63Z" transform="translate(-150.3 -378.68)"/><path class="cls-22" d="M260.92,526.5a4,4,0,0,1,2.5.53c1.26.75,1.76,1.89,1.34,2.87a4.78,4.78,0,0,1-3.91,3.12,33.26,33.26,0,0,0-4.36.9,1.59,1.59,0,0,1-1.73-.55c-.19-.23-.52-.57-.26-.78s1.64-1.74,2.41-2.66a27.42,27.42,0,0,1,1.72-2.23A3,3,0,0,1,260.92,526.5Z" transform="translate(-150.3 -378.68)"/><path class="cls-21" d="M263.47,527.57a3.57,3.57,0,0,1-3,4.59,21.15,21.15,0,0,0-4.09,1,3,3,0,0,1-1.65.22,1.59,1.59,0,0,0,1.73.55,33.26,33.26,0,0,1,4.36-.9,4.78,4.78,0,0,0,3.91-3.12,1.93,1.93,0,0,0-.24-1.87C263.71,527.08,263.37,527.23,263.47,527.57Z" transform="translate(-150.3 -378.68)"/><ellipse class="cls-23" cx="255.52" cy="532.16" rx="0.16" ry="0.15" transform="translate(-332.76 -242.31) rotate(-22.25)"/><ellipse class="cls-23" cx="256.4" cy="531.01" rx="0.16" ry="0.15" transform="translate(-332.26 -242.06) rotate(-22.25)"/><ellipse class="cls-23" cx="257.42" cy="530.07" rx="0.16" ry="0.15" transform="translate(-331.8 -241.77) rotate(-22.24)"/><ellipse class="cls-23" cx="258.16" cy="528.52" rx="0.16" ry="0.15" transform="translate(-331.05 -241.74) rotate(-22.23)"/><ellipse class="cls-23" cx="259.34" cy="528.16" rx="0.16" ry="0.15" transform="translate(-330.94 -241.19) rotate(-22.24)"/><ellipse class="cls-23" cx="260.2" cy="527.32" rx="0.16" ry="0.15" transform="translate(-330.58 -240.9) rotate(-22.25)"/><ellipse class="cls-23" cx="261.51" cy="526.92" rx="0.16" ry="0.15" transform="translate(-330.23 -240.55) rotate(-22.23)"/><ellipse class="cls-23" cx="261.44" cy="527.8" rx="0.16" ry="0.15" transform="translate(-330.67 -240.39) rotate(-22.25)"/><ellipse class="cls-23" cx="260.54" cy="528.29" rx="0.16" ry="0.15" transform="translate(-330.8 -240.84) rotate(-22.23)"/><ellipse class="cls-23" cx="259.94" cy="529.29" rx="0.16" ry="0.15" transform="translate(-331.24 -240.97) rotate(-22.23)"/><ellipse class="cls-23" cx="258.95" cy="529.45" rx="0.16" ry="0.15" transform="translate(-331.45 -241.24) rotate(-22.24)"/><ellipse class="cls-23" cx="258.42" cy="530.72" rx="0.16" ry="0.15" transform="translate(-331.92 -241.41) rotate(-22.24)"/><ellipse class="cls-23" cx="257.61" cy="531.18" rx="0.16" ry="0.15" transform="translate(-332.33 -241.49) rotate(-22.26)"/><ellipse class="cls-23" cx="256.56" cy="531.73" rx="0.16" ry="0.15" transform="translate(-332.51 -241.96) rotate(-22.25)"/><ellipse class="cls-23" cx="256.16" cy="532.72" rx="0.16" ry="0.15" transform="translate(-332.85 -242.11) rotate(-22.24)"/><ellipse class="cls-23" cx="255.02" cy="533.06" rx="0.16" ry="0.15" transform="translate(-333.09 -242.49) rotate(-22.24)"/><ellipse class="cls-23" cx="257.41" cy="532.47" rx="0.16" ry="0.15" transform="translate(-332.71 -241.6) rotate(-22.25)"/><ellipse class="cls-23" cx="258.08" cy="531.69" rx="0.16" ry="0.15" transform="translate(-332.37 -241.4) rotate(-22.24)"/><ellipse class="cls-23" cx="259.11" cy="532.09" rx="0.16" ry="0.15" transform="translate(-332.34 -241.1) rotate(-22.23)"/><ellipse class="cls-23" cx="256.01" cy="533.67" rx="0.16" ry="0.15" transform="translate(-333.31 -242) rotate(-22.25)"/><ellipse class="cls-23" cx="256.98" cy="533.08" rx="0.16" ry="0.15" transform="translate(-332.93 -241.77) rotate(-22.24)"/><ellipse class="cls-23" cx="257.79" cy="533.41" rx="0.16" ry="0.15" transform="translate(-332.93 -241.5) rotate(-22.23)"/><ellipse class="cls-23" cx="258.53" cy="532.77" rx="0.16" ry="0.15" transform="translate(-332.63 -241.28) rotate(-22.23)"/><ellipse class="cls-23" cx="259.27" cy="533.01" rx="0.16" ry="0.15" transform="translate(-332.92 -240.69) rotate(-22.27)"/><ellipse class="cls-23" cx="260.09" cy="532.55" rx="0.16" ry="0.15" transform="translate(-332.46 -240.67) rotate(-22.23)"/><ellipse class="cls-23" cx="260.83" cy="532.79" rx="0.16" ry="0.15" transform="translate(-332.36 -240.53) rotate(-22.21)"/><ellipse class="cls-23" cx="261.88" cy="532.08" rx="0.16" ry="0.15" transform="translate(-332.15 -240.03) rotate(-22.23)"/><ellipse class="cls-23" cx="262.57" cy="532.14" rx="0.16" ry="0.15" transform="translate(-332.21 -239.67) rotate(-22.25)"/><ellipse class="cls-23" cx="262.98" cy="531.24" rx="0.16" ry="0.15" transform="translate(-331.72 -239.71) rotate(-22.23)"/><ellipse class="cls-23" cx="263.87" cy="530.76" rx="0.16" ry="0.15" transform="translate(-331.59 -239.28) rotate(-22.25)"/><ellipse class="cls-23" cx="263.88" cy="529.95" rx="0.16" ry="0.15" transform="translate(-331.31 -239.3) rotate(-22.25)"/><ellipse class="cls-23" cx="264.55" cy="529.29" rx="0.16" ry="0.15" transform="translate(-330.87 -239.26) rotate(-22.23)"/><ellipse class="cls-23" cx="264.07" cy="528.45" rx="0.16" ry="0.15" transform="translate(-330.76 -239.31) rotate(-22.25)"/><ellipse class="cls-23" cx="263.93" cy="527.79" rx="0.16" ry="0.15" transform="translate(-330.35 -239.6) rotate(-22.23)"/><ellipse class="cls-23" cx="259.37" cy="530.79" rx="0.16" ry="0.15" transform="translate(-331.97 -240.94) rotate(-22.25)"/><ellipse class="cls-23" cx="260.34" cy="531.27" rx="0.16" ry="0.15" transform="translate(-332.04 -240.58) rotate(-22.25)"/><ellipse class="cls-23" cx="260.38" cy="530.04" rx="0.16" ry="0.15" transform="translate(-331.58 -240.65) rotate(-22.25)"/><ellipse class="cls-23" cx="261.79" cy="529.47" rx="0.16" ry="0.15" transform="translate(-331.15 -240.28) rotate(-22.23)"/><ellipse class="cls-23" cx="261.14" cy="528.95" rx="0.16" ry="0.15" transform="translate(-330.99 -240.58) rotate(-22.23)"/><ellipse class="cls-23" cx="262.45" cy="528.29" rx="0.16" ry="0.15" transform="translate(-330.64 -240.13) rotate(-22.23)"/><ellipse class="cls-23" cx="262.4" cy="527.17" rx="0.16" ry="0.15" transform="translate(-330.31 -240.14) rotate(-22.24)"/><ellipse class="cls-23" cx="263.25" cy="527.44" rx="0.16" ry="0.15" transform="translate(-330.35 -239.79) rotate(-22.24)"/><ellipse class="cls-23" cx="263.29" cy="528.18" rx="0.16" ry="0.15" transform="translate(-330.55 -239.81) rotate(-22.23)"/><ellipse class="cls-23" cx="262.78" cy="529.1" rx="0.16" ry="0.15" transform="translate(-331.07 -239.78) rotate(-22.25)"/><ellipse class="cls-23" cx="262.77" cy="530.4" rx="0.16" ry="0.15" transform="translate(-331.48 -239.78) rotate(-22.24)"/><ellipse class="cls-23" cx="261.51" cy="530.66" rx="0.16" ry="0.15" transform="translate(-331.59 -240.33) rotate(-22.23)"/><ellipse class="cls-23" cx="261.64" cy="531.5" rx="0.16" ry="0.15" transform="translate(-331.93 -240.19) rotate(-22.23)"/><ellipse class="cls-23" cx="260.13" cy="531.99" rx="0.16" ry="0.15" transform="translate(-332.34 -240.59) rotate(-22.25)"/><path class="cls-21" d="M307.13,500.12s-.05,1.83,0,2.16,1.67,1.19,3,1.75,5,1.27,6.77.73,3.28-1.36,3.62-2.82.48-4.47-.2-5.37S308.21,499,307.13,500.12Z" transform="translate(-150.3 -378.68)"/><path class="cls-24" d="M320.54,496.89c-.11.45-.29.88-.43,1.35-.25.83-.68,1.6-.94,2.41a.82.82,0,0,1,0,.35,4.16,4.16,0,0,1-1.75,2.69,3.63,3.63,0,0,1-1.84.33c-.67,0-1.34,0-2,0a12.61,12.61,0,0,1-3.76-.75,8.58,8.58,0,0,1-2.67-1.33,2.26,2.26,0,0,0,0,.32c.1.45,1.67,1.19,3,1.75s5,1.27,6.77.73,3.28-1.36,3.62-2.82A11.11,11.11,0,0,0,320.54,496.89Z" transform="translate(-150.3 -378.68)"/><path class="cls-22" d="M314.41,503c-3.11-.12-6.61-1.54-7.09-2.22a1,1,0,0,1-.12-1,2.08,2.08,0,0,1,1.49-1.12,9.6,9.6,0,0,0,4.43-2.88,4.39,4.39,0,0,1,3.33-1.43,5.42,5.42,0,0,1,2.28.67,3.25,3.25,0,0,1,2,3.41c0,1.7-.53,3.73-4.32,4.42a9,9,0,0,1-2,.12Z" transform="translate(-150.3 -378.68)"/><path class="cls-23" d="M318.59,495.3a4.12,4.12,0,0,0-5.25.7c-2.29,2.27-3.76,2.79-4.58,3s-1.66.95-1.18,1.63,5.32,2.6,8.75,2,4-2.33,4.07-4.13A3,3,0,0,0,318.59,495.3Z" transform="translate(-150.3 -378.68)"/><path class="cls-22" d="M308.39,499.85a3.32,3.32,0,0,1,1.84-.4,2.67,2.67,0,0,0,2.11-.9,1.86,1.86,0,0,1-1.7,1.08C309.26,499.67,309,499.53,308.39,499.85Z" transform="translate(-150.3 -378.68)"/><path class="cls-15" d="M318,496.79a1.86,1.86,0,0,0-1.2,0,.7.7,0,0,0-.26,1.19,2.67,2.67,0,0,0,1.84.07A.84.84,0,0,0,318,496.79Z" transform="translate(-150.3 -378.68)"/><path class="cls-22" d="M317.83,497a1.39,1.39,0,0,0-.9,0,.52.52,0,0,0-.19.89,2,2,0,0,0,1.38.06A.63.63,0,0,0,317.83,497Z" transform="translate(-150.3 -378.68)"/><path class="cls-22" d="M312.32,500.52s.08.34.87.72a2.55,2.55,0,0,0,1.93.09c.19-.12-.93.21-1.65-.12A7.81,7.81,0,0,1,312.32,500.52Z" transform="translate(-150.3 -378.68)"/><path class="cls-22" d="M314.93,494.92a2.76,2.76,0,0,1-.56,1c-.4.43-1,.57-.94.93s.06-.13.4-.33a3.85,3.85,0,0,0,1.13-1.08A.55.55,0,0,0,314.93,494.92Z" transform="translate(-150.3 -378.68)"/><path class="cls-22" d="M315,497.8s.51.68,0,1-.07.14.27,0S315.21,498,315,497.8Z" transform="translate(-150.3 -378.68)"/><path class="cls-22" d="M319.75,498.3s-.81,1.23-1.3,1.16a2.67,2.67,0,0,0-1.57,1.07c-.06.26-.13.21.41-.17s.83-.7,1.34-.75S319.74,498.5,319.75,498.3Z" transform="translate(-150.3 -378.68)"/><path class="cls-25" d="M282.67,461.67a2,2,0,0,0-.83.34c-.41.52-.16,3.64-.1,5a2.85,2.85,0,0,0,.85,2l.08,0Z" transform="translate(-150.3 -378.68)"/><path class="cls-26" d="M288,462c-.16-1.07-3.8-.75-5.42-.31v7.25l0,0,4-1.72C287.14,467,288.19,463.33,288,462Z" transform="translate(-150.3 -378.68)"/><ellipse class="cls-23" cx="133.04" cy="86.52" rx="0.4" ry="0.62"/><ellipse class="cls-23" cx="134.52" cy="85.77" rx="0.33" ry="0.57"/><ellipse class="cls-23" cx="133.95" cy="87.66" rx="0.38" ry="0.62"/><ellipse class="cls-27" cx="133.04" cy="88.95" rx="0.46" ry="0.67"/><ellipse class="cls-23" cx="135.28" cy="87.87" rx="0.51" ry="0.98"/><ellipse class="cls-23" cx="136.53" cy="85.02" rx="0.46" ry="0.67"/><ellipse class="cls-23" cx="135.67" cy="85.92" rx="0.32" ry="0.52"/><path class="cls-28" d="M286.36,466.21v4.33s3.77.3,5.93-1.48c1.9-1.57,1.67-2.41,1.67-3.26a14.13,14.13,0,0,0-.17-4C293.41,460.74,287.17,465.41,286.36,466.21Z" transform="translate(-150.3 -378.68)"/><path class="cls-23" d="M293.79,461.76c-.13-.35-.95,0-2,.57v7.09a4.82,4.82,0,0,0,.5-.36c1.9-1.57,1.67-2.41,1.67-3.26A14.13,14.13,0,0,0,293.79,461.76Z" transform="translate(-150.3 -378.68)"/><path class="cls-21" d="M287.46,458.56c-3.33.28-5.88,2.21-5.71,4.33a2.79,2.79,0,0,0,.84,1.73l5.18-2.23s-.85,2.31-1.41,3.82a9.3,9.3,0,0,0,1.73,0c3.33-.28,5.88-2.21,5.71-4.33S290.79,458.29,287.46,458.56Z" transform="translate(-150.3 -378.68)"/><path class="cls-28" d="M282.73,466.32V473a1.54,1.54,0,0,0,.35,0l1.41-3.82v-4.33S283.54,465.7,282.73,466.32Z" transform="translate(-150.3 -378.68)"/><path class="cls-25" d="M283.08,466a8.4,8.4,0,0,1-1.34.92,5.45,5.45,0,0,1-2.44.14v4.33a3.48,3.48,0,0,0,1.89,1.16,5.68,5.68,0,0,0,1.88.43h0Z" transform="translate(-150.3 -378.68)"/><path class="cls-21" d="M283.08,468.7c.57-1.51,1.41-3.82,1.41-3.82l-5.18,2.23A6.21,6.21,0,0,0,283.08,468.7Z" transform="translate(-150.3 -378.68)"/><ellipse class="cls-23" cx="133.14" cy="90.51" rx="0.17" ry="0.73"/><ellipse class="cls-23" cx="133.67" cy="90.51" rx="0.17" ry="0.99"/><ellipse class="cls-23" cx="133.14" cy="92.41" rx="0.17" ry="0.51"/><ellipse class="cls-23" cx="284.16" cy="467.13" rx="0.2" ry="0.67" transform="translate(-188.67 -353.05) rotate(-4.84)"/><path class="cls-22" d="M282.57,464.17s-.13-3,2.25-4.18a11,11,0,0,1,5.8-.87,8.3,8.3,0,0,0-6.52.56C280.48,461.82,282.57,464.17,282.57,464.17Z" transform="translate(-150.3 -378.68)"/><path class="cls-21" d="M261.26,461.2h0a4.48,4.48,0,0,0-1.07-2.4,3.56,3.56,0,0,1-.77-1.84h.13v-.46h-.15v-.26h.15v-.46c0-.15-.67-.27-1.5-.27s-1.5.12-1.5.27h0v.46h.15v.26h-.15V457h.13a3.56,3.56,0,0,1-.77,1.84,4.48,4.48,0,0,0-1.07,2.4.34.34,0,0,0,0,0v9.89h0c0,.46,1.44.84,3.21.84s3.21-.38,3.21-.84h0Z" transform="translate(-150.3 -378.68)"/><path class="cls-22" d="M260.66,461.3a3.41,3.41,0,0,0-.56-1.53,11.61,11.61,0,0,0-4.09,0,3.41,3.41,0,0,0-.56,1.53s0,0,0,0v9.43h0c0,.19.92.57,2.61.57s2.61-.37,2.61-.57c0,0,0-9.46,0-9.46Z" transform="translate(-150.3 -378.68)"/><path class="cls-29" d="M257.16,457.4a3,3,0,0,1-.73,1.77c-.47.57-.65,1.21-.64,5.65,0,5.07,0,5.88,0,5.88l.56.2s0-8.58.13-10C256.63,459.13,257.3,459.22,257.16,457.4Z" transform="translate(-150.3 -378.68)"/><path class="cls-23" d="M259.11,457.4a3,3,0,0,0,.73,1.77c.47.57.65,1.21.64,5.65,0,5.07,0,5.88,0,5.88l-.56.2s0-8.58-.13-10C259.65,459.13,259,459.22,259.11,457.4Z" transform="translate(-150.3 -378.68)"/><path class="cls-30" d="M259.55,459.68a4.79,4.79,0,0,1,.26,1.23c.13,1.41.13,10,.13,10l.56-.2s0-.81,0-5.88a25.79,25.79,0,0,0-.22-4.74c-.05-.1-.11-.2-.18-.3Z" transform="translate(-150.3 -378.68)"/><path class="cls-23" d="M256.7,456.38s0-.15,1.35-.15,1.35.15,1.35.15v-.14s0-.16-1.37-.16-1.33.16-1.33.16Z" transform="translate(-150.3 -378.68)"/><path class="cls-23" d="M256.66,457.1s0-.15,1.39-.15,1.39.15,1.39.15l0-.14s0-.16-1.39-.16-1.34.16-1.34.16Z" transform="translate(-150.3 -378.68)"/><path class="cls-15" d="M256.34,470.9s0-8.58.13-10a4.77,4.77,0,0,1,.26-1.25l-.63.09c-.23.65-.32,1.88-.31,5.07,0,5.07,0,5.88,0,5.88Z" transform="translate(-150.3 -378.68)"/><path class="cls-21" d="M291.28,565.32c-.63,4.09-2.11,5.43-5.35,5.43-3,0-4.64-2-5.1-5.47-.39-3,1.71-4.42,5.1-4.42S291.79,562,291.28,565.32Z" transform="translate(-150.3 -378.68)"/><path class="cls-23" d="M284.53,561.55a3.54,3.54,0,0,1,1.63-.24c1.06,0,1.67.21,1.66.45s-1.07.45-2,.32S284.26,561.91,284.53,561.55Z" transform="translate(-150.3 -378.68)"/><path class="cls-21" d="M287.91,559.15a2.16,2.16,0,0,0-.66,0c.13-.15.22-.24.19-.24s-.49-.89-1,.12a7,7,0,0,0-.49,2.7s0,.38,0,.39l.49,0a5.21,5.21,0,0,1,.22-2,2.61,2.61,0,0,1,.38-.71,1,1,0,0,1,.84,0c.58.15.69.29.83.46s.15-.09.16-.14A2,2,0,0,0,287.91,559.15Z" transform="translate(-150.3 -378.68)"/><path class="cls-31" d="M288.55,559.5l-.32-.12c-.23-.09-.47-.12-.71-.2a1,1,0,0,0-.27,0c.13-.15.22-.24.19-.24s-.06-.06-.12-.13a2.74,2.74,0,0,0-1,1.52,6.41,6.41,0,0,1-.32,1.51.11.11,0,0,1-.11.06c0,.11,0,.25,0,.25l.49,0a5.21,5.21,0,0,1,.22-2,2.61,2.61,0,0,1,.38-.71,1,1,0,0,1,.84,0c.58.15.69.29.83.46s.09,0,.12,0A.56.56,0,0,0,288.55,559.5Z" transform="translate(-150.3 -378.68)"/><path class="cls-21" d="M288.26,559.38a2.57,2.57,0,0,0,2.25,2.2c2.1.37,2.57-.06,2.57-.06a2.4,2.4,0,0,0-1.38-2.19C290.18,558.43,288.75,558.16,288.26,559.38Z" transform="translate(-150.3 -378.68)"/><path class="cls-24" d="M291.9,561.16a13.48,13.48,0,0,1-1.56-.63,5.51,5.51,0,0,1-.62-.44,4.74,4.74,0,0,1-1.38-.85l-.07.15a2.57,2.57,0,0,0,2.25,2.2c1.75.31,2.36.06,2.52,0A4.56,4.56,0,0,1,291.9,561.16Z" transform="translate(-150.3 -378.68)"/><path class="cls-23" d="M286.5,569.88c-1.57.16-3.82-.52-3.19,0a2.74,2.74,0,0,0,.86.58,5.33,5.33,0,0,0,1.77.28c3.24,0,4.72-1.35,5.35-5.43a3.58,3.58,0,0,0-.53-2.76,19.72,19.72,0,0,1-.5,2.72C289.87,566.62,288.3,569.7,286.5,569.88Z" transform="translate(-150.3 -378.68)"/><path class="cls-22" d="M282.39,567.64a9.46,9.46,0,0,1-.89-3,2.56,2.56,0,0,1,1.08-2.4c.47-.14.25.15.61.21a6.47,6.47,0,0,0,1.37.31c.21-.08.55-.34.7,0a1,1,0,0,1-.34,1.05c-.24.11-.66.37-.92.23s-1,.06-1.25-.11S281.51,564.62,282.39,567.64Z" transform="translate(-150.3 -378.68)"/><path class="cls-22" d="M314,521.24a25.85,25.85,0,0,1,.21,5.39c-.3,1.46.75,1.4,1.24,0A5.62,5.62,0,0,0,314,521.24Z" transform="translate(-150.3 -378.68)"/><path class="cls-21" d="M314,528.84s1.21-3.67,3.7-3.45,2.57.95,2.57.95-3.42.08-3.66,1.84a6.64,6.64,0,0,1-.5,1.79C315.87,530.22,313.91,529.77,314,528.84Z" transform="translate(-150.3 -378.68)"/><path class="cls-21" d="M312.66,528.8s0-2.13-2-2-.2-.86.73-.86,3.32.89,3.27,2.91S312.79,529.51,312.66,528.8Z" transform="translate(-150.3 -378.68)"/><path class="cls-23" d="M315.46,528.51s0-3.39,3-4.23a8.22,8.22,0,0,1,2.2-.07,2.77,2.77,0,0,0-2.56-.91c-1.88.12-4.13,1.06-4.13,4.65S315.37,529.44,315.46,528.51Z" transform="translate(-150.3 -378.68)"/><path class="cls-21" d="M310,522.35a5.24,5.24,0,0,1,3.51,3.52c.61,2.7,1.46,2.41,1.38.94S314.33,521.67,310,522.35Z" transform="translate(-150.3 -378.68)"/><path class="cls-22" d="M309.63,524s2.68,1.17,3.36,3.11c.48,1.38,2.42,1.64,2.42,1.64S313.74,523.57,309.63,524Z" transform="translate(-150.3 -378.68)"/><path class="cls-22" d="M313.17,530s-2.07-1.15-2.85-.56.61-1.5,2.07-.94S314,529.92,313.17,530Z" transform="translate(-150.3 -378.68)"/><path class="cls-22" d="M315.24,530a2.38,2.38,0,0,1,2.54-1.14l2.07.54s-1.56-1.93-3.1-1.63S312.73,529.75,315.24,530Z" transform="translate(-150.3 -378.68)"/><path class="cls-23" d="M313.51,530.17s-.08-2.12-.89-2.93,3.35,1,2.74,2.93S313.76,530.59,313.51,530.17Z" transform="translate(-150.3 -378.68)"/><path class="cls-21" d="M318.4,535c-.08-3-.91-4.53-1.82-5.17a7.47,7.47,0,0,0-4.49,0c-.91.64-1.74,2.21-1.82,5.17s1.34,4.72,2.15,4.95a11.09,11.09,0,0,0,3.85,0C317.06,539.77,318.48,538,318.4,535Z" transform="translate(-150.3 -378.68)"/><path class="cls-23" d="M316.58,529.87a2.1,2.1,0,0,0-.61-.29,9.29,9.29,0,0,1,1.06,4.57c.09,3.2-1.45,5.1-2.32,5.34a7.9,7.9,0,0,1-2.08.18c-.05,0-.37,0-.77,0a1.5,1.5,0,0,0,.54.32,11.09,11.09,0,0,0,3.85,0c.8-.22,2.23-2,2.15-4.95S317.49,530.52,316.58,529.87Z" transform="translate(-150.3 -378.68)"/><path class="cls-22" d="M312.32,531.44a4.54,4.54,0,0,0,.43-1.34c0-.36.1,1,.2,1.34S312.46,531.86,312.32,531.44Z" transform="translate(-150.3 -378.68)"/><path class="cls-22" d="M314.15,532.93a4.54,4.54,0,0,0,.43-1.34c0-.36.1,1,.2,1.34S314.28,533.34,314.15,532.93Z" transform="translate(-150.3 -378.68)"/><path class="cls-22" d="M310.8,533.37a4.54,4.54,0,0,0,.43-1.34c0-.36.1,1,.2,1.34S310.94,533.79,310.8,533.37Z" transform="translate(-150.3 -378.68)"/><path class="cls-22" d="M315.85,531.69a4.54,4.54,0,0,0,.43-1.34c0-.36.1,1,.2,1.34S316,532.11,315.85,531.69Z" transform="translate(-150.3 -378.68)"/><path class="cls-22" d="M312.18,534.92a4.54,4.54,0,0,0,.43-1.34c0-.36.1,1,.2,1.34S312.32,535.33,312.18,534.92Z" transform="translate(-150.3 -378.68)"/><path class="cls-22" d="M315.84,535.16a4.54,4.54,0,0,0,.43-1.34c0-.36.1,1,.2,1.34S316,535.58,315.84,535.16Z" transform="translate(-150.3 -378.68)"/><path class="cls-22" d="M312.5,539.5a4.54,4.54,0,0,0,.06-1.41c-.13-.34.37,1,.54,1.24S312.74,539.87,312.5,539.5Z" transform="translate(-150.3 -378.68)"/><path class="cls-22" d="M314,537.25a4.54,4.54,0,0,0,.43-1.34c0-.36.1,1,.2,1.34S314.14,537.67,314,537.25Z" transform="translate(-150.3 -378.68)"/><path class="cls-22" d="M310.93,537.61a4.54,4.54,0,0,0,.14-1.4c-.11-.35.32,1,.48,1.27S311.15,538,310.93,537.61Z" transform="translate(-150.3 -378.68)"/><path class="cls-22" d="M315.52,539.35a4.54,4.54,0,0,0,.65-1.25c0-.36-.07,1,0,1.36S315.58,539.78,315.52,539.35Z" transform="translate(-150.3 -378.68)"/><path class="cls-22" d="M317.16,533.12a4.54,4.54,0,0,0,.43-1.34c0-.36.1,1,.2,1.34S317.3,533.54,317.16,533.12Z" transform="translate(-150.3 -378.68)"/><path class="cls-22" d="M316.94,537.39a4.54,4.54,0,0,0,.65-1.25c0-.36-.08,1,0,1.36S317,537.82,316.94,537.39Z" transform="translate(-150.3 -378.68)"/><path class="cls-21" d="M266.08,560.8l.34.6a3,3,0,0,1-.49,1.64,3.91,3.91,0,0,1-2.77,1.63c-3.74.51-9.19-1.65-9.3-1.94s1.63.07,2.58.23,2.92.69,4.6,0,2.69-1.53,3.52-1.82A5.06,5.06,0,0,1,266.08,560.8Z" transform="translate(-150.3 -378.68)"/><path class="cls-23" d="M266.08,560.8h-.24a2.86,2.86,0,0,1-.49,1.6,3.9,3.9,0,0,1-2.77,1.63c-2.76.37-6.44-.7-8.23-1.4-.33,0-.54,0-.5.1.11.29,5.56,2.44,9.3,1.94a3.91,3.91,0,0,0,2.77-1.63,3,3,0,0,0,.49-1.64Z" transform="translate(-150.3 -378.68)"/><path class="cls-22" d="M265.54,561.07a9.31,9.31,0,0,0-1.85,1.19,6.93,6.93,0,0,1-3.66,1.55,28.78,28.78,0,0,1-5.22-.68c-.22-.12-.05-.22,1.36.07a17.06,17.06,0,0,0,4.4.18,8.75,8.75,0,0,0,3.43-1.69A2.78,2.78,0,0,1,265.54,561.07Z" transform="translate(-150.3 -378.68)"/><path class="cls-21" d="M252.31,561.34s.43,1.95.6,2.45A6.47,6.47,0,0,0,257.7,567c2.94.36,3.26.32,3.83.15a6,6,0,0,1,1.54-.34c.11.06.82.58.56,1.22a5.26,5.26,0,0,1-4.66,2.46c-2.57,0-5.52-.55-7-2.64s-1.05-3.26-.77-3.78a3.25,3.25,0,0,0,.45-1.53c-.06-.3-.44-1.07-.32-1.29S252.38,560.5,252.31,561.34Z" transform="translate(-150.3 -378.68)"/><path class="cls-22" d="M261.92,568.39v0s0,0,0-.06,0-.06,0-.09h-.37l-.3,0a8.11,8.11,0,0,1-3.13.22c-2.38-.21-3.92-.88-5.16-2.41a3.24,3.24,0,0,1-.9-2.25c0-.07.32-.73.32-.73a3.47,3.47,0,0,1-.5.11.45.45,0,0,1-.25-.09,4.69,4.69,0,0,1-.4,1l-.06.12a16.6,16.6,0,0,0,1,2c1.65,2.92,6.66,3,8.7,2.63a3.57,3.57,0,0,0,1-.33A.55.55,0,0,1,261.92,568.39Z" transform="translate(-150.3 -378.68)"/><path class="cls-21" d="M259.15,569.39c-2.57,0-5.52-.55-7-2.64a5.19,5.19,0,0,1-1-2.48c-.26.59-.45,1.72.85,3.61,1.44,2.1,4.4,2.63,7,2.64a5.26,5.26,0,0,0,4.66-2.46.79.79,0,0,0-.07-.72A5.52,5.52,0,0,1,259.15,569.39Z" transform="translate(-150.3 -378.68)"/><path class="cls-23" d="M263.63,567.65a5.26,5.26,0,0,1-4.66,2.46c-2.57,0-5.52-.55-7-2.64a5.17,5.17,0,0,1-1-2.49,4.57,4.57,0,0,0,1,2.89c1.44,2.1,4.4,2.63,7,2.64a5.26,5.26,0,0,0,4.66-2.46.74.74,0,0,0,0-.49Z" transform="translate(-150.3 -378.68)"/><path class="cls-23" d="M263.59,567.39c-.08.26-.37.34-.6.43-.72.26-2.71.23-5.58-.17-.87-.12-3.69-1-4.27-2.33a3.26,3.26,0,0,1-.59-2.38c.07-.28.46.12.46.4a2.85,2.85,0,0,0,.89,2.17,5.41,5.41,0,0,0,1.3.69,12.92,12.92,0,0,0,1.45.6,6.53,6.53,0,0,0,1.27.22c.46,0,.91.13,1.37.2s1,.12,1.53.17a11.76,11.76,0,0,0,1.51.06,2.73,2.73,0,0,0,.63-.07.49.49,0,0,0,.2-.08h0v0h0A.22.22,0,0,1,263.59,567.39Zm-.44-.1h0Z" transform="translate(-150.3 -378.68)"/><path class="cls-21" d="M253.09,561.14s.32,1,.66,1.1a15,15,0,0,1,1.93.88,12.8,12.8,0,0,0,6.19,1.24,23,23,0,0,1,3-.34,7.83,7.83,0,0,1,1,.29l.24.49a3.16,3.16,0,0,1-.2.76,4.62,4.62,0,0,1-3.59,1.91c-2.49.26-6,.09-8.45-1.71-2-1.45-1.31-2.89-1.31-2.89l-.59-1.32s-.45-.4-.26-.61.51-.56.71-.44S253.12,561,253.09,561.14Z" transform="translate(-150.3 -378.68)"/><path class="cls-23" d="M262.61,566.32c-2.54.37-6.13.33-8.71-1.42a3.56,3.56,0,0,1-1.37-1.52,2.81,2.81,0,0,0,1.42,2.38c2.45,1.8,6,2,8.45,1.71a4.62,4.62,0,0,0,3.59-1.91,3.16,3.16,0,0,0,.2-.76l-.15-.3A5.08,5.08,0,0,1,262.61,566.32Z" transform="translate(-150.3 -378.68)"/><path class="cls-22" d="M265.84,564.4a4.76,4.76,0,0,0-1.15-.21c-.28,0-3.77,1-6.26.21a22.85,22.85,0,0,1-3.86-1.63,8.89,8.89,0,0,0-1.24-.43l-.18.16a3.11,3.11,0,0,1,1,.27,19.25,19.25,0,0,0,4.66,2.06,13,13,0,0,0,5.89-.46A3.36,3.36,0,0,1,265.84,564.4Z" transform="translate(-150.3 -378.68)"/><path class="cls-23" d="M265.84,564.26a.38.38,0,0,0,0,.25c0,.18.23.4.35.28S266,564.15,265.84,564.26Z" transform="translate(-150.3 -378.68)"/><path class="cls-23" d="M251.91,560.8s.39.23.45.43a.26.26,0,0,0,.25.22,2.07,2.07,0,0,1,.26.71c0,.14.35.06.41,0a.68.68,0,0,1,.27-.09,1.45,1.45,0,0,0,.16.15s-.45.11-.59.28a2.4,2.4,0,0,1-.48.36l-.59-1.32S251.41,561.06,251.91,560.8Z" transform="translate(-150.3 -378.68)"/><path class="cls-21" d="M282.89,533.05a10.87,10.87,0,0,0-3.88,2.19c-1.11,1.28-1,1.21-1,1.21s-.27-.13.08-.6-.21-.19.09-.53-.87.34-.42-.08-.74-.17-.12-.4-.61-.18,0-.38-.75.22-.21-.16-.58-.07-.06-.36-.87-.42-.14-.41.79-.12.68-.12-.65,0-.81-.27.34-.06,1,.08a5,5,0,0,0,2.36-.09,16.21,16.21,0,0,0,2.41-.85S283.13,533,282.89,533.05Z" transform="translate(-150.3 -378.68)"/><path class="cls-23" d="M281.44,533.58a1.49,1.49,0,0,1-.12-.2,5.72,5.72,0,0,1-.91.31,12.81,12.81,0,0,0-2,.48.1.1,0,0,1,0,.17l-.07.05.07,0a.12.12,0,0,1,.13.05,1.53,1.53,0,0,1,.84-.35c.13,0,.15.21,0,.21a1.61,1.61,0,0,0-.81.36c-.14.08-.31.14-.45.23a1.43,1.43,0,0,0-.29.44l.18-.06.16-.17a1.09,1.09,0,0,1,.52-.36c.13,0,.15.18,0,.21a1.05,1.05,0,0,0-.46.37,2.62,2.62,0,0,0-.21.25c.06,0,.13.07-.05.32-.35.47-.09.59-.08.6s.09-.11,1-1.21a7.62,7.62,0,0,1,2.46-1.63Z" transform="translate(-150.3 -378.68)"/><path class="cls-22" d="M295.36,528.16a106.72,106.72,0,0,1-13.22,6.28c-.67.24-1.87-2.25-1-2.63a79.23,79.23,0,0,1,13.74-4.2C295.38,527.51,295.8,527.91,295.36,528.16Z" transform="translate(-150.3 -378.68)"/><path class="cls-21" d="M295.32,528a115.58,115.58,0,0,1-13.72,6,.32.32,0,0,1-.2,0c.24.33.51.55.73.47a106.72,106.72,0,0,0,13.22-6.28C295.57,528,295.65,527.77,295.32,528Z" transform="translate(-150.3 -378.68)"/><path class="cls-23" d="M288.29,529.29a2.41,2.41,0,0,0,.22.76c.06.12.21.06.15-.06a2.24,2.24,0,0,1-.22-.75Z" transform="translate(-150.3 -378.68)"/><path class="cls-23" d="M287.29,529.91a1.47,1.47,0,0,1-.09-.29l-.15,0a1.59,1.59,0,0,0,.09.3C287.2,530.09,287.35,530,287.29,529.91Z" transform="translate(-150.3 -378.68)"/><path class="cls-23" d="M286,530a5.77,5.77,0,0,0,.31.9c0,.13.2.07.15-.06a5,5,0,0,1-.31-.9Z" transform="translate(-150.3 -378.68)"/><path class="cls-23" d="M285.39,532.13a.63.63,0,0,0,.22.44c.09.09.18-.05.09-.15s-.15-.15-.15-.24S285.39,532,285.39,532.13Z" transform="translate(-150.3 -378.68)"/><path class="cls-23" d="M285.43,530.71a2.23,2.23,0,0,0,.26.7c.07.11.2,0,.12-.11a1.88,1.88,0,0,1-.22-.6C285.56,530.58,285.4,530.58,285.43,530.71Z" transform="translate(-150.3 -378.68)"/><path class="cls-23" d="M287.05,530.54a1.68,1.68,0,0,0,.44.92c.09.09.18-.05.09-.15a1.41,1.41,0,0,1-.37-.78C287.2,530.41,287,530.41,287.05,530.54Z" transform="translate(-150.3 -378.68)"/><path class="cls-23" d="M281.29,531.75a2.7,2.7,0,0,0,.4,1.2c.07.11.2,0,.12-.11a2.46,2.46,0,0,1-.37-1.16Z" transform="translate(-150.3 -378.68)"/><path class="cls-23" d="M282.51,533.11c0-.13-.19-.07-.15.06a2.78,2.78,0,0,0,.58,1l.17-.07A2.42,2.42,0,0,1,282.51,533.11Z" transform="translate(-150.3 -378.68)"/><path class="cls-23" d="M291.72,528.34a1.68,1.68,0,0,0,.23.57c.07.11.2,0,.12-.11a1.43,1.43,0,0,1-.2-.51Z" transform="translate(-150.3 -378.68)"/><path class="cls-23" d="M289.62,528.9a1.61,1.61,0,0,0,.21.6c.07.11.19,0,.12-.11a1.33,1.33,0,0,1-.18-.54Z" transform="translate(-150.3 -378.68)"/><path class="cls-23" d="M293.33,527.95a1.66,1.66,0,0,0,.21.48c.07.11.2,0,.12-.11a1.41,1.41,0,0,1-.18-.41Z" transform="translate(-150.3 -378.68)"/><path class="cls-23" d="M289.13,530a2.25,2.25,0,0,0,.44.91c.08.1.2,0,.12-.11a2,2,0,0,1-.4-.81C289.26,529.86,289.1,529.86,289.13,530Z" transform="translate(-150.3 -378.68)"/><path class="cls-23" d="M290.53,530c0-.13-.19-.13-.16,0a2,2,0,0,0,.29.68l.15-.07A1.66,1.66,0,0,1,290.53,530Z" transform="translate(-150.3 -378.68)"/><path class="cls-23" d="M288.25,531.09c-.05-.12-.2-.07-.15.06a3.87,3.87,0,0,0,.32.6l.15-.07A3.45,3.45,0,0,1,288.25,531.09Z" transform="translate(-150.3 -378.68)"/><path class="cls-23" d="M291.29,529.14c0-.13-.18-.13-.16,0a1.89,1.89,0,0,0,.48,1l.16-.08A1.62,1.62,0,0,1,291.29,529.14Z" transform="translate(-150.3 -378.68)"/><path class="cls-23" d="M284.34,530.57a3.06,3.06,0,0,0,.39,1.07c.07.11.2,0,.12-.11a2.88,2.88,0,0,1-.37-1Z" transform="translate(-150.3 -378.68)"/><path class="cls-23" d="M292.82,528.69c0-.13-.19-.07-.15.06a1.75,1.75,0,0,0,.39.67l.16-.08A1.42,1.42,0,0,1,292.82,528.69Z" transform="translate(-150.3 -378.68)"/><path class="cls-23" d="M294.33,528.22c-.07-.12-.19,0-.12.11s.12.25.19.37l.14-.08C294.46,528.49,294.4,528.35,294.33,528.22Z" transform="translate(-150.3 -378.68)"/><path class="cls-23" d="M283.54,532.75a1.1,1.1,0,0,0,.29.55c.09.09.18-.06.09-.15a.81.81,0,0,1-.22-.41C283.68,532.62,283.51,532.62,283.54,532.75Z" transform="translate(-150.3 -378.68)"/><path class="cls-23" d="M282.92,531.09a1.58,1.58,0,0,0,.3.64c.08.1.17,0,.09-.15a1.29,1.29,0,0,1-.24-.55Z" transform="translate(-150.3 -378.68)"/><path class="cls-23" d="M286.6,531.92c-.07-.12-.19,0-.12.11s.2.33.31.48l.15-.07A5.9,5.9,0,0,1,286.6,531.92Z" transform="translate(-150.3 -378.68)"/><path class="cls-23" d="M284.55,532.37c0-.13-.2-.07-.15.06a3.16,3.16,0,0,0,.53.91l.16-.07A2.92,2.92,0,0,1,284.55,532.37Z" transform="translate(-150.3 -378.68)"/><path class="cls-23" d="M282.55,532.25a1.55,1.55,0,0,0,.42.86c.09.08.18-.06.09-.15a1.28,1.28,0,0,1-.34-.71C282.69,532.12,282.53,532.12,282.55,532.25Z" transform="translate(-150.3 -378.68)"/><path class="cls-21" d="M320.45,564.61c0,2.87-2.49,4-5.57,4s-5.57-.92-5.57-4c0-2.22,2.49-4,5.57-4S320.45,562.39,320.45,564.61Z" transform="translate(-150.3 -378.68)"/><path class="cls-23" d="M318.81,561.76a3.06,3.06,0,0,1,.44,1.57c0,2.87-2.49,4-5.57,4a7.62,7.62,0,0,1-4-.86c.83,1.6,2.82,2.14,5.16,2.14,3.07,0,5.57-1.15,5.57-4A3.55,3.55,0,0,0,318.81,561.76Z" transform="translate(-150.3 -378.68)"/><path class="cls-23" d="M315.1,563.51c.31-.56.56-1.26.3-1.64.35.37,1.41,1.42,1.33,1a3.33,3.33,0,0,0-.34-1.18c.5.2,2,.66,1.65.25s-.94-.51-1.18-.8,1.15.34,1.76.53a6.42,6.42,0,0,0-2.24-.89,1.16,1.16,0,0,0-.3,0c-.21.07-.39-.06-.61-.17l-.58,0h-.44c-.15.06-.12.11-.3.17s-.92,0-1.43.15-.73.29-1.25.51a5,5,0,0,0-1.24,1c0,.1.15.12.4,0,.78-.39,1.31-.89,1.27-.67a2.5,2.5,0,0,0-.64,1.69s.4-1.5,1.69-1.69.44.27.44.27a1.39,1.39,0,0,0-.28.73c0,.78.26,1,.22.72s.7-.9.89-1.26,0-.85.34,0S314.87,563.93,315.1,563.51Z" transform="translate(-150.3 -378.68)"/><path class="cls-22" d="M311,563.24s.4-1.5,1.69-1.69.44.27.44.27a1.39,1.39,0,0,0-.28.73c0,.78.26,1,.22.72s.7-.9.89-1.26,0-.85.34,0,.32,1.77.55,1.35c.33-.6.59-1.36.23-1.72s1.5,1.65,1.39,1-.24-1.26-.48-1.26,2.25.85,1.79.34-.94-.51-1.18-.8,2.59,1,2,.47a3.78,3.78,0,0,0-2.76-.79c-.38.13-.66-.4-1.26-.27s-.4.18-.66.27a14.34,14.34,0,0,0-1.43.15c-.51.17-.9.37-1.71.7s-1.07,1.12-.39.78,1.31-.89,1.27-.67A2.5,2.5,0,0,0,311,563.24Z" transform="translate(-150.3 -378.68)"/><path class="cls-22" d="M310.23,566.11a3,3,0,0,1-.22-2.54c.44-.86.88-.32.9-.09A16.71,16.71,0,0,0,310.23,566.11Z" transform="translate(-150.3 -378.68)"/><path class="cls-24" d="M315.58,561.88a2.91,2.91,0,0,0-.32-.28,1.13,1.13,0,0,0-.14-.15l0-.09a.1.1,0,0,0,0-.07.08.08,0,0,0-.1-.06l-.09,0a.1.1,0,0,0-.11,0,.1.1,0,0,0,0,.15,2.09,2.09,0,0,1,0,1.94v0c0,.09.09.1.16,0,.31-.56.56-1.26.3-1.64.13.14.37.38.6.59A1.23,1.23,0,0,0,315.58,561.88Z" transform="translate(-150.3 -378.68)"/><path class="cls-24" d="M315,560.42l.13.09.12.07.06.05a.32.32,0,0,0,.19.06.26.26,0,0,0,.35-.12h-.05c-.3.1-.54-.21-.92-.28a.09.09,0,0,0,.07.08S315,560.41,315,560.42Z" transform="translate(-150.3 -378.68)"/><path class="cls-24" d="M317.86,561.26a2.35,2.35,0,0,0-1.4-.49.11.11,0,0,0,0,.21c.23.06.4.22.64.27l.23.07a2.19,2.19,0,0,1-.67-.4C316.5,560.74,317.23,561,317.86,561.26Z" transform="translate(-150.3 -378.68)"/><path class="cls-24" d="M316.82,561.59c-.25-.09-.46-.22-.7-.31a.45.45,0,0,0-.23-.07.11.11,0,0,0,0,.21l.15,0c.16.1.25.38.31.53a5,5,0,0,1,.2.73.15.15,0,0,0,0-.09,3.33,3.33,0,0,0-.34-1.18,9.22,9.22,0,0,0,1.08.34A1.55,1.55,0,0,0,316.82,561.59Z" transform="translate(-150.3 -378.68)"/><path class="cls-24" d="M313.95,561.1a.52.52,0,0,0-.15.32,1.27,1.27,0,0,1-.32.8,1.65,1.65,0,0,0-.42,1.12v0c0,.06.07,0,.05-.08,0-.27.7-.9.89-1.26s.07-.62.18-.41a.88.88,0,0,0-.06-.48A.11.11,0,0,0,313.95,561.1Z" transform="translate(-150.3 -378.68)"/><path class="cls-24" d="M310.41,562.22a6.8,6.8,0,0,0,.63-.36,1.36,1.36,0,0,1,.28-.18c.24-.16.38-.24.35-.13s-.14.19-.27.37a2.51,2.51,0,0,1,.4-.32,5.12,5.12,0,0,1,1-.35l0,0,.12,0c.14,0,.08-.24-.06-.21l-.77.17a7,7,0,0,0-.76.26,1.13,1.13,0,0,0-.43.25,3.57,3.57,0,0,1-.84.5.09.09,0,0,0,0,0C310.05,562.32,310.17,562.33,310.41,562.22Z" transform="translate(-150.3 -378.68)"/><path class="cls-24" d="M313.41,561.53a.2.2,0,0,0-.22-.24,2.3,2.3,0,0,0-1.09.43,2.72,2.72,0,0,0-.91,1l-.14.26c0,.09,0,.18,0,.28s.4-1.5,1.69-1.69A1.46,1.46,0,0,1,313.41,561.53Z" transform="translate(-150.3 -378.68)"/><path class="cls-22" d="M263.28,500a23.86,23.86,0,0,0-.61-5.74l.18-1-.31.16-.21-.2h-.26l-.27.2-.49-.2h-.41l-.27.2-.44-.2h-.35l-.22.2-.25-.2h-.29l-.29.2-.35-.2h-.38l-.36.2-.38-.2h-.5l-.56.2-.25-.2h-.41l-.51.2-.25-.2h-.43l-.56.2-.38-.2h-.1l.18,1A23.86,23.86,0,0,0,253,500c0,3.51.61,4.06.61,4.06l-.18.85.47-.25.27.25h.13l.34-.25.62.25h.2l.34-.25.56.25h.17l.28-.25.32.25h.14l.37-.25.44.25h.19l.45-.25.48.25h.25l.71-.25.32.25h.2l.64-.25.32.25h.21l.71-.25.3.16-.16-.76S263.28,503.56,263.28,500Z" transform="translate(-150.3 -378.68)"/><path class="cls-21" d="M262.82,493.45a2.21,2.21,0,0,1-1,.24c-.9,0-1.72.29-2.64.28s-2-.1-3,0a9.75,9.75,0,0,1-1.56.13,4.44,4.44,0,0,0-1.09-.12l.06.35,0,.11c1,.07,1.93,0,2.91,0,1.25,0,2.47.21,3.72.21a4,4,0,0,1,2.75,1c-.14-.9-.28-1.4-.28-1.4Z" transform="translate(-150.3 -378.68)"/><path class="cls-22" d="M263.28,500a23.86,23.86,0,0,0-.61-5.74l.18-1-.23.12c-.12.48-.1,1-.2,1.48A12,12,0,0,0,262,497a5.46,5.46,0,0,1-.41,2.49c0,.58,0,1.1-.09,1.49a2.83,2.83,0,0,1-2.27,2c-.8,0-4.37.48-5.22-.16a8.36,8.36,0,0,1-1-.84c.16,1.8.53,2.13.53,2.13l-.18.85.47-.25.27.25h.13l.34-.25.62.25h.2l.34-.25.56.25h.17l.28-.25.32.25h.14l.37-.25.44.25h.19l.45-.25.48.25h.25l.71-.25.32.25h.2l.64-.25.32.25h.21l.71-.25.3.16-.16-.76S263.28,503.56,263.28,500Z" transform="translate(-150.3 -378.68)"/><path class="cls-22" d="M253.6,504.11v.06h.15a2.93,2.93,0,0,1,.61.16,6.18,6.18,0,0,0,1.05.08,15.93,15.93,0,0,0,3.27-.1c.56-.1,1.11.13,1.67.09a7,7,0,0,1,1.56,0,2.39,2.39,0,0,1,.88.31l-.12-.55s.32-.29.5-1.81a2.33,2.33,0,0,1-1,1c-.52.26-1,0-1.48.22a2.62,2.62,0,0,1-.74.13,4.13,4.13,0,0,1-1,.22,24,24,0,0,1-2.42.06c-.68,0-1.37.11-2,0a1.66,1.66,0,0,1-1.31-.92A2.12,2.12,0,0,0,253.6,504.11Z" transform="translate(-150.3 -378.68)"/><path class="cls-21" d="M253.4,495.23s2.43.17,4.73.17a40.86,40.86,0,0,0,4.7-.32,28.71,28.71,0,0,1,.42,3.89c0,1.63-.09,3.28-.09,3.28s-2.33-.21-5-.16-5.07.29-5.07.29a27.27,27.27,0,0,1-.12-3.52A30.06,30.06,0,0,1,253.4,495.23Z" transform="translate(-150.3 -378.68)"/><path class="cls-23" d="M263.26,499c0-.61-.06-1.18-.11-1.68-.12-1.17-.31-2.21-.31-2.22h0l-.71.08a.37.37,0,0,1,.13.22,5.65,5.65,0,0,1-.21,2.08,7.92,7.92,0,0,1-.5,3.2c0,.11,0,.21,0,.31a2,2,0,0,1-.64,1.15c1.36,0,2.3.13,2.3.13h0S263.27,500.6,263.26,499Z" transform="translate(-150.3 -378.68)"/><polygon class="cls-22" points="106.22 126.29 106.49 126.04 106.51 126.05 106.51 125.77 106.06 126.29 106.22 126.29"/><polygon class="cls-22" points="110.35 126.29 111 126.04 111.01 126.05 111.01 125.77 110.3 126.29 110.35 126.29"/><polygon class="cls-22" points="107.95 126.29 108.4 126.04 108.42 126.05 108.42 125.77 107.81 126.29 107.95 126.29"/><polygon class="cls-22" points="109.13 126.29 109.84 126.04 109.87 126.06 109.87 125.77 109.08 126.29 109.13 126.29"/><polygon class="cls-22" points="105.14 126.29 105.48 126.04 105.49 126.04 105.49 125.77 104.99 126.29 105.14 126.29"/><polygon class="cls-22" points="103.98 126.29 104.33 126.04 104.39 126.06 104.39 125.77 103.86 126.29 103.98 126.29"/><polygon class="cls-22" points="112.24 126.04 112.19 125.77 111.29 126.27 111.31 126.29 111.53 126.29 112.23 126.04 112.24 126.04"/><polygon class="cls-22" points="107.32 126.04 107.33 126.04 107.3 125.77 106.81 126.29 106.81 126.29 106.95 126.29 107.32 126.04"/><polygon class="cls-22" points="103.59 125.77 103.12 126.28 103.59 126.04 103.59 125.77"/><polygon class="cls-21" points="105.4 114.62 105.33 114.62 104.83 114.82 104.58 114.62 104.15 114.62 103.59 114.82 103.42 114.73 103.41 114.75 103.48 115.16 104.41 114.64 104.66 114.69 104.66 115.16 105.4 114.62"/><polygon class="cls-21" points="108.8 114.62 108.51 114.82 108.16 114.62 108.16 114.62 108.06 114.62 108.32 114.75 108.37 115.16 108.89 114.62 108.8 114.62"/><polygon class="cls-21" points="112.54 114.66 112.23 114.82 112.03 114.62 111.77 114.62 111.5 114.82 111.25 114.72 111.28 114.78 111.28 115.16 111.81 114.64 112.08 114.7 112.08 115.16 112.54 114.66"/><polygon class="cls-21" points="106.62 114.62 106.55 114.62 105.99 114.82 105.74 114.62 105.63 114.62 105.81 114.81 105.81 115.16 106.62 114.62"/><polygon class="cls-21" points="110.61 114.62 110.34 114.82 110.18 114.75 110.18 115.16 110.7 114.62 110.61 114.62"/><polygon class="cls-21" points="107.88 114.62 107.78 114.62 107.42 114.82 107.11 114.66 107.25 114.76 107.25 115.16 107.88 114.62"/><polygon class="cls-21" points="109.55 114.62 109.33 114.82 109.16 114.69 109.16 115.16 109.63 114.62 109.55 114.62"/><path class="cls-22" d="M256.45,499c0-.62.78-1,1.68-1a1.52,1.52,0,0,1,1.79,1.28c0,.62-1,1-1.9,1.11A1.29,1.29,0,0,1,256.45,499Z" transform="translate(-150.3 -378.68)"/><path class="cls-23" d="M259.3,498.26a1.26,1.26,0,0,1,.19.56c0,.62-1,1-1.9,1.11a1.59,1.59,0,0,1-1-.19,1.35,1.35,0,0,0,1.41.64c.9-.08,1.95-.49,1.9-1.11A1.37,1.37,0,0,0,259.3,498.26Z" transform="translate(-150.3 -378.68)"/><path class="cls-22" d="M261.71,500.21c0,.66-.9,1.06-2,1.19-1.4.17-2.18-.62-2.27-1.26s1.17-1.14,2.27-1.27C261.15,498.71,261.71,499.55,261.71,500.21Z" transform="translate(-150.3 -378.68)"/><path class="cls-23" d="M261.26,499.24a1.24,1.24,0,0,1,.06.39c0,.66-.9,1.06-2,1.2a2.23,2.23,0,0,1-1.83-.49,1.94,1.94,0,0,0,2.22,1.07c1.1-.13,2-.53,2-1.19A1.3,1.3,0,0,0,261.26,499.24Z" transform="translate(-150.3 -378.68)"/><path class="cls-21" d="M256.85,498.64a.25.25,0,0,0-.08.09c-.06.1.1.2.16.09v0C257,498.72,256.95,498.56,256.85,498.64Z" transform="translate(-150.3 -378.68)"/><path class="cls-21" d="M257.7,498.26h-.15c-.12,0-.07.2,0,.18h.1A.09.09,0,0,0,257.7,498.26Z" transform="translate(-150.3 -378.68)"/><path class="cls-21" d="M257.93,498.56h-.1a.09.09,0,0,0,0,.18h.06C258,498.77,258,498.6,257.93,498.56Z" transform="translate(-150.3 -378.68)"/><path class="cls-21" d="M257.3,499l-.11,0c-.12,0-.07.2,0,.18l.11,0A.09.09,0,0,0,257.3,499Z" transform="translate(-150.3 -378.68)"/><path class="cls-21" d="M257,499.47l-.07,0c-.11-.05-.2.11-.09.16l.07,0C257,499.68,257.1,499.52,257,499.47Z" transform="translate(-150.3 -378.68)"/><path class="cls-21" d="M258.21,498.92h-.07c-.12,0-.17.16,0,.18a.34.34,0,0,0,.21,0C258.41,499,258.31,498.87,258.21,498.92Z" transform="translate(-150.3 -378.68)"/><path class="cls-21" d="M258.82,498.2h-.21a.09.09,0,0,0,0,.18h.21A.09.09,0,0,0,258.82,498.2Z" transform="translate(-150.3 -378.68)"/><path class="cls-21" d="M259.08,498.5a.2.2,0,0,0-.13.06c-.09.08,0,.21.13.13h0C259.19,498.67,259.19,498.49,259.08,498.5Z" transform="translate(-150.3 -378.68)"/><path class="cls-21" d="M258,499.58l-.08.08c-.09.07,0,.23.09.16l.12-.11A.09.09,0,0,0,258,499.58Z" transform="translate(-150.3 -378.68)"/><path class="cls-21" d="M259.08,499.18a.32.32,0,0,0-.15,0c-.11.05,0,.21.09.16h.06A.09.09,0,0,0,259.08,499.18Z" transform="translate(-150.3 -378.68)"/><path class="cls-21" d="M258.6,499.76a.21.21,0,0,0-.13,0,.09.09,0,0,0,0,.18h0A.09.09,0,0,0,258.6,499.76Z" transform="translate(-150.3 -378.68)"/><path class="cls-21" d="M258.1,500.17a.16.16,0,0,1-.09-.08c-.05-.11-.21,0-.16.09a.31.31,0,0,0,.16.15C258.12,500.38,258.21,500.22,258.1,500.17Z" transform="translate(-150.3 -378.68)"/><path class="cls-21" d="M258.61,500.64h-.07a.09.09,0,0,0,0,.18h.07A.09.09,0,0,0,258.61,500.64Z" transform="translate(-150.3 -378.68)"/><path class="cls-21" d="M259.11,500l-.14.08c-.1.06,0,.21.09.16l.14-.08C259.31,500.1,259.21,499.94,259.11,500Z" transform="translate(-150.3 -378.68)"/><path class="cls-21" d="M259.95,499.17h-.07a.09.09,0,0,0,0,.18h.07A.09.09,0,0,0,259.95,499.17Z" transform="translate(-150.3 -378.68)"/><path class="cls-21" d="M260.32,499.18h0a.09.09,0,0,0,.18,0h0A.09.09,0,0,0,260.32,499.18Z" transform="translate(-150.3 -378.68)"/><path class="cls-21" d="M260.69,499.52a.57.57,0,0,0-.18,0c-.11,0-.06.22,0,.18l.14,0C260.81,499.7,260.81,499.51,260.69,499.52Z" transform="translate(-150.3 -378.68)"/><path class="cls-21" d="M259.35,499.61a.2.2,0,0,0-.13,0,.09.09,0,0,0,0,.18h0A.09.09,0,0,0,259.35,499.61Z" transform="translate(-150.3 -378.68)"/><path class="cls-21" d="M259.86,499.78a.18.18,0,0,0-.15.08c-.07.1.09.19.16.09h0C260,500,260,499.77,259.86,499.78Z" transform="translate(-150.3 -378.68)"/><path class="cls-21" d="M259.42,500.47a.18.18,0,0,0-.14,0c-.08.09,0,.22.13.13s0,0,0,0A.09.09,0,0,0,259.42,500.47Z" transform="translate(-150.3 -378.68)"/><path class="cls-21" d="M260.51,500.1h0a.09.09,0,0,0,0,.18h0A.09.09,0,0,0,260.51,500.1Z" transform="translate(-150.3 -378.68)"/><path class="cls-22" d="M256.69,495.79c-.37.42-.52,1.1-1.82,1.34-.88.17-.24.87.76.87a1.59,1.59,0,0,0,1.76-1.34C257.47,495.92,257.22,495.18,256.69,495.79Z" transform="translate(-150.3 -378.68)"/><path class="cls-23" d="M257.09,495.57a1.94,1.94,0,0,1,.07.81,1.59,1.59,0,0,1-1.76,1.34,1.74,1.74,0,0,1-.94-.25c.06.25.54.52,1.18.52a1.59,1.59,0,0,0,1.76-1.34C257.45,496.15,257.34,495.63,257.09,495.57Z" transform="translate(-150.3 -378.68)"/><path class="cls-22" d="M255.67,500.06c-.47-.29-.86-.18-1.17-1.25-.21-.73-1.11-.19-1.07.65a1.44,1.44,0,0,0,1.49,1.4C255.7,500.89,256.33,500.47,255.67,500.06Z" transform="translate(-150.3 -378.68)"/><path class="cls-23" d="M254.92,500.48a1.45,1.45,0,0,1-1.48-1.25,1.11,1.11,0,0,0,0,.23,1.44,1.44,0,0,0,1.49,1.4c.68,0,1.24-.29.94-.64A1.32,1.32,0,0,1,254.92,500.48Z" transform="translate(-150.3 -378.68)"/></g><g id="Layer_5" data-name="Layer 5"><path class="cls-18" d="M431.17,448.06H412.25V424h64.22v24.08H458.13v75.58h-27Z" transform="translate(-150.3 -378.68)"/><path class="cls-18" d="M519.51,461.31q7.8,6.85,7.73,21.6l-.2,40.73H506l-2.28-5.09A27.86,27.86,0,0,1,496,524a19.24,19.24,0,0,1-8.39,2q-8.62,0-13.51-5.38t-4.89-15a22.72,22.72,0,0,1,2.51-10.93,17.56,17.56,0,0,1,7.28-7.24,23.54,23.54,0,0,1,11.36-2.58,90.5,90.5,0,0,1,11.42.91V483.5a12,12,0,0,0-.65-4.37,4.71,4.71,0,0,0-2.71-2.51,16,16,0,0,0-6-.88,39.73,39.73,0,0,0-11.19,1.63,34.42,34.42,0,0,0-9.17,4l2.15-21.47a39.6,39.6,0,0,1,10.18-3.95,51.53,51.53,0,0,1,12.53-1.47Q511.71,454.45,519.51,461.31Zm-27,46.5a4.59,4.59,0,0,0,3.62,1.6,7.5,7.5,0,0,0,2.9-.55,9.8,9.8,0,0,0,2.77-1.86V497a25.3,25.3,0,0,0-5.09-.52,5.28,5.28,0,0,0-4,1.7,6.87,6.87,0,0,0-1.6,4.89A7,7,0,0,0,492.49,507.81Z" transform="translate(-150.3 -378.68)"/><path class="cls-18" d="M624.1,456.83q4.5,2.51,6.89,8.68t2.38,16.81v41.31H608.11v-40q0-4.5-1.08-6.23a3.62,3.62,0,0,0-3.3-1.73,6.77,6.77,0,0,0-3.65,1.11,11.77,11.77,0,0,0-3.13,2.94q.06.85.07,2.61v41.31H572.28v-40q0-4.5-1.08-6.23a3.62,3.62,0,0,0-3.3-1.73,6.77,6.77,0,0,0-3.65,1.11,11.37,11.37,0,0,0-3.13,3l-.07,43.86H535.73v-66.9h21.34l2.35,5.09a40.63,40.63,0,0,1,8.68-5.42,21,21,0,0,1,8.75-2.09,23.69,23.69,0,0,1,10.41,2,14.21,14.21,0,0,1,6.49,6.79,38.39,38.39,0,0,1,9.27-6.36,22,22,0,0,1,9.66-2.45A23.25,23.25,0,0,1,624.1,456.83Z" transform="translate(-150.3 -378.68)"/><path class="cls-18" d="M647.14,449.07a12.23,12.23,0,0,1-5-4.7,13.26,13.26,0,0,1-1.8-6.89,13.56,13.56,0,0,1,1.8-7,12.39,12.39,0,0,1,5-4.76,15.5,15.5,0,0,1,7.38-1.7,15.9,15.9,0,0,1,7.44,1.7A12.31,12.31,0,0,1,667,430.5a13.57,13.57,0,0,1,1.79,7,13.27,13.27,0,0,1-1.79,6.89,12.15,12.15,0,0,1-5.06,4.7,16.15,16.15,0,0,1-7.44,1.66A15.75,15.75,0,0,1,647.14,449.07Zm-5.29,7.67h25.39v66.9H641.85Z" transform="translate(-150.3 -378.68)"/><path class="cls-18" d="M676.38,421h25.39v102.6H676.38Z" transform="translate(-150.3 -378.68)"/><path class="cls-18" d="M759,461.31q7.8,6.85,7.73,21.6l-.19,40.73H745.43l-2.28-5.09a27.88,27.88,0,0,1-7.67,5.48,19.25,19.25,0,0,1-8.39,2q-8.62,0-13.51-5.38t-4.89-15a22.72,22.72,0,0,1,2.51-10.93,17.56,17.56,0,0,1,7.28-7.24,23.54,23.54,0,0,1,11.36-2.58,90.46,90.46,0,0,1,11.42.91V483.5a12,12,0,0,0-.65-4.37,4.7,4.7,0,0,0-2.71-2.51,16,16,0,0,0-6-.88,39.73,39.73,0,0,0-11.19,1.63,34.42,34.42,0,0,0-9.17,4l2.15-21.47a39.6,39.6,0,0,1,10.18-3.95,51.54,51.54,0,0,1,12.53-1.47Q751.17,454.45,759,461.31Zm-27,46.5a4.59,4.59,0,0,0,3.62,1.6,7.5,7.5,0,0,0,2.9-.55,9.8,9.8,0,0,0,2.77-1.86V497a25.3,25.3,0,0,0-5.09-.52,5.28,5.28,0,0,0-4,1.7,6.88,6.88,0,0,0-1.6,4.89A7,7,0,0,0,732,507.81Z" transform="translate(-150.3 -378.68)"/><path class="cls-18" d="M829,456.9a15.44,15.44,0,0,1,6.59,8.35q2.15,5.78,2.15,15.63v42.75H812.52V483.69q0-4.24-1.08-6.14a4,4,0,0,0-3.75-1.89,6.9,6.9,0,0,0-4,1.31,12.36,12.36,0,0,0-3.13,3.07v43.6H775.19v-66.9h21.28l2.48,5.42a33.32,33.32,0,0,1,8.71-5.71,23.48,23.48,0,0,1,9.69-2.12Q824.6,454.32,829,456.9Z" transform="translate(-150.3 -378.68)"/><path class="cls-12" d="M503,540.41H556l-4.37,24.08h-26l-2.48,14h22.13l-4,22.45H519.11l-2.61,15h26.56l-4.31,24.08H485.17Z" transform="translate(-150.3 -378.68)"/><path class="cls-12" d="M540.71,640.07,565,607l-10.57-33.81H579.8l4.31,19.32,9.66-19.32h27.09l-21,33.81,10.7,33.09H584.7l-5.22-18.41-10.25,18.41Z" transform="translate(-150.3 -378.68)"/><path class="cls-12" d="M685.73,595.63a63.6,63.6,0,0,1-3.85,21.18,47.39,47.39,0,0,1-11.32,18.31A24.22,24.22,0,0,1,653,642.49a17.75,17.75,0,0,1-11.81-4.18l-5.42,30.41H610.28l17.16-95.48h21l1.11,4a25.7,25.7,0,0,1,7-4.83,19.74,19.74,0,0,1,8.19-1.63q9.53,0,15,5.91t6,16.61Q685.73,594.06,685.73,595.63Zm-29.79,22.22a24.2,24.2,0,0,0,3.85-8.42,36.37,36.37,0,0,0,1.27-9,12.33,12.33,0,0,0-1.31-6.17A4.19,4.19,0,0,0,655.9,592a7.75,7.75,0,0,0-3.49,1,14.46,14.46,0,0,0-3.82,3l-4.18,23.56a9.58,9.58,0,0,0,2.41,1.34,8.26,8.26,0,0,0,2.81.42A7.63,7.63,0,0,0,655.94,617.85Z" transform="translate(-150.3 -378.68)"/><path class="cls-12" d="M738.66,571a15.54,15.54,0,0,1,3.2.91L739,594.45a39.74,39.74,0,0,0-5.48-1.17A37.59,37.59,0,0,0,729,593q-5.81,0-10.7,5l-7.51,42H685.47l12-66.9h21.21l1.5,6.27a32.4,32.4,0,0,1,7.44-6.36,14.18,14.18,0,0,1,7.24-2.32A23.55,23.55,0,0,1,738.66,571Z" transform="translate(-150.3 -378.68)"/><path class="cls-12" d="M790.91,607.73q-9.69,5.19-28,5.19l-.07,1,.07,1a7.17,7.17,0,0,0,2.48,5.42q2.35,2,6.85,2a44,44,0,0,0,11.26-1.4A68.39,68.39,0,0,0,795,616.77l-5.55,20.36A62.11,62.11,0,0,1,778.25,641a51,51,0,0,1-12.3,1.6q-12.79,0-19.87-6.27t-7.67-17.82q-.07-.85-.07-2.61a54.27,54.27,0,0,1,4.41-21.41,41,41,0,0,1,13.25-17q8.84-6.66,21.37-6.66,8.42,0,13.61,2.77a16.8,16.8,0,0,1,7.41,7.18,21.11,21.11,0,0,1,2.22,9.63Q800.6,602.55,790.91,607.73Zm-21.18-15.27a24.2,24.2,0,0,0-4.57,8.32,64,64,0,0,0,9.86-1.31,11.26,11.26,0,0,0,5-2.19,4.63,4.63,0,0,0,1.44-3.56,4.19,4.19,0,0,0-1.31-3.23,5.39,5.39,0,0,0-3.79-1.21A8.56,8.56,0,0,0,769.73,592.46Z" transform="translate(-150.3 -378.68)"/><path class="cls-12" d="M808.5,641.31a30.49,30.49,0,0,1-8.55-3.46l2.61-21.28a21.57,21.57,0,0,0,7.9,4.76,25.43,25.43,0,0,0,8.35,1.63,10.35,10.35,0,0,0,5-.95,3,3,0,0,0,1.73-2.51,2.88,2.88,0,0,0-1.17-2.61,31.72,31.72,0,0,0-4.5-2.74l-1.57-.78q-12-5.87-12.53-16.38l-.07-1.57A24.22,24.22,0,0,1,809,583a23.37,23.37,0,0,1,9.56-8.94,31.79,31.79,0,0,1,15-3.33A43.81,43.81,0,0,1,852,574.55l-2.55,21q-8.36-5.29-14.88-5.29a5.61,5.61,0,0,0-3.52,1,3.39,3.39,0,0,0-1.31,2.84,3.8,3.8,0,0,0,1,2.64,15.32,15.32,0,0,0,3.79,2.64,89.12,89.12,0,0,1,8.26,4.73,17.65,17.65,0,0,1,4.89,4.86,13.44,13.44,0,0,1,2.12,7,23.64,23.64,0,0,1-13.38,23.07,35.87,35.87,0,0,1-16.58,3.56A45.77,45.77,0,0,1,808.5,641.31Z" transform="translate(-150.3 -378.68)"/><path class="cls-12" d="M860.38,641.31a30.48,30.48,0,0,1-8.55-3.46l2.61-21.28a21.56,21.56,0,0,0,7.9,4.76A25.44,25.44,0,0,0,870.7,623a10.35,10.35,0,0,0,5-.95,3,3,0,0,0,1.73-2.51,2.88,2.88,0,0,0-1.17-2.61,31.75,31.75,0,0,0-4.5-2.74l-1.57-.78q-12-5.87-12.53-16.38l-.07-1.57a24.22,24.22,0,0,1,3.26-12.4,23.35,23.35,0,0,1,9.56-8.94,31.79,31.79,0,0,1,15-3.33,43.8,43.8,0,0,1,18.41,3.79l-2.55,21q-8.36-5.29-14.88-5.29a5.61,5.61,0,0,0-3.52,1,3.39,3.39,0,0,0-1.31,2.84,3.79,3.79,0,0,0,1,2.64,15.32,15.32,0,0,0,3.79,2.64,89.28,89.28,0,0,1,8.26,4.73,17.66,17.66,0,0,1,4.89,4.86,13.44,13.44,0,0,1,2.12,7,23.64,23.64,0,0,1-13.38,23.07,35.87,35.87,0,0,1-16.58,3.56A45.77,45.77,0,0,1,860.38,641.31Z" transform="translate(-150.3 -378.68)"/></g></g></svg>